<?xml version="1.0" standalone="no"?>
<!DOCTYPE svg PUBLIC "-//W3C//DTD SVG 1.1//EN" "http://www.w3.org/Graphics/SVG/1.1/DTD/svg11.dtd">
<svg xmlns="http://www.w3.org/2000/svg">
<defs >
<font id="PublicSans" horiz-adv-x="1094" ><font-face
    font-family="Public Sans Thin Light"
    units-per-em="2000"
    panose-1="0 0 0 0 0 0 0 0 0 0"
    ascent="1900"
    descent="-450"
    alphabetic="0" />
<glyph unicode=" " horiz-adv-x="471" />
<glyph unicode="!" horiz-adv-x="485" d="M335 212V0H143V212H335ZM334 1446L294 346H186L145 1446H334Z" />
<glyph unicode="&quot;" horiz-adv-x="821" d="M679 1446L623 1005H528L475 1446H679ZM347 1446L291 1005H196L143 1446H347Z" />
<glyph unicode="#" horiz-adv-x="1199" d="M564 1437L345 -3L243 12L462 1449L564 1437ZM970 1437L752 -3L649 12L868 1449L970 1437ZM1053 577V474H78V577H1053ZM1117 987V884H142V987H1117Z" />
<glyph unicode="$" horiz-adv-x="1305" d="M670 -20Q449 -20 302 77T125 361L289 374Q323 245 423 182T669 118Q756 118 834 148T962 234T1012 365Q1012 465 954 526T769 624L516 693Q356 736 264 821T170 1049Q170 1171 234 1264T412 1411T679 1464Q823 1464
927 1408T1089 1261T1153 1062L994 1050Q970 1188 892 1258T678 1328Q615 1328 555 1312T446 1262T368 1179T339 1062Q339 980 396 932T605 837L847 766Q1027 714 1103 609T1180 368Q1180 255 1116 168T936 30T670 -20ZM605 1665H754V1407H605V1665ZM592 44H741V-214H592V44Z"
/>
<glyph unicode="%" horiz-adv-x="1789" d="M447 1468Q544 1468 619 1418T737 1276T780 1054Q780 925 738 833T620 692T447 642Q350 642 274 691T154 833T110 1054Q110 1183 154 1275T274 1418T447 1468ZM445 733Q546 733 602 822T659 1054Q659 1198 602 1288T445
1378Q378 1378 331 1337T258 1222T232 1054Q232 912 288 823T445 733ZM1341 809Q1437 809 1512 759T1631 615T1674 395Q1674 265 1632 172T1514 30T1341 -20Q1243 -20 1167 29T1048 172T1004 395Q1004 522 1047 615T1167 758T1341 809ZM1339 73Q1404 73 1452 114T1526
228T1552 393Q1552 486 1526 559T1451 674T1339 716Q1274 716 1226 674T1152 559T1126 393Q1126 300 1152 228T1226 115T1339 73ZM1423 1462L451 -8L339 -7L1315 1462H1423Z" />
<glyph unicode="&amp;" horiz-adv-x="1376" d="M599 1468Q701 1468 788 1431T928 1325T982 1162Q982 1126 968 1082T918 987T813 881T634 768L976 369Q996 395 1026 450T1081 586T1111 767H1262Q1251 660 1221 574T1148 414T1056 273L1288 0H1105L960 166Q852
74 739 32T513 -10Q376 -10 281 37T135 169T85 364Q85 457 122 533T234 675T423 801Q365 861 325 918T263 1033T241 1156Q241 1243 286 1314T412 1426T599 1468ZM604 1355Q503 1354 451 1297T398 1164Q398 1110 421 1058T475 963T528 897L562 860Q675 924 734 975T815
1070T837 1160Q837 1232 803 1275T715 1337T604 1355ZM504 703Q393 642 323 557T256 365Q259 290 298 235T402 149T544 118Q635 118 724 158T881 264L504 703Z" />
<glyph unicode="&apos;" horiz-adv-x="489" d="M347 1446L291 1005H196L143 1446H347Z" />
<glyph unicode="(" horiz-adv-x="589" d="M536 1532Q435 1338 368 1108T301 640Q301 415 356 201T518 -236H413Q331 -96 271 41T178 325T145 642Q145 889 225 1118T431 1532H536Z" />
<glyph unicode=")" horiz-adv-x="604" d="M43 1532Q144 1338 211 1108T278 640Q278 415 223 201T61 -236H166Q248 -96 308 41T401 325T434 642Q434 889 354 1118T148 1532H43Z" />
<glyph unicode="*" horiz-adv-x="745" d="M532 803L379 1050L220 796L123 863L307 1094L53 1167L89 1269L333 1173L316 1446H437L421 1173L668 1278L700 1176L451 1095L630 874L532 803Z" />
<glyph unicode="+" horiz-adv-x="1091" d="M966 790V665L125 664V788L966 790ZM610 307H485L484 1148H608L610 307Z" />
<glyph unicode="," horiz-adv-x="464" d="M85 -243L196 -3L113 1V205H326V28L165 -243H85Z" />
<glyph unicode="-" horiz-adv-x="747" d="M622 581V454L125 453V580L622 581Z" />
<glyph unicode="." horiz-adv-x="427" d="M113 0V214H306V0H113Z" />
<glyph unicode="/" horiz-adv-x="685" d="M28 -88L527 1446H655L155 -88H28Z" />
<glyph unicode="0" horiz-adv-x="1206" d="M604 1466Q832 1466 969 1279T1107 720Q1107 350 970 164T602 -22Q371 -22 235 163T99 717Q99 966 162 1132T338 1382T604 1466ZM605 117Q766 117 851 259T936 720Q936 1043 850 1186T603 1330Q443 1330 355 1186T267
720Q267 402 355 260T605 117Z" />
<glyph unicode="1" horiz-adv-x="802" d="M380 0V1169H95V1279Q226 1279 297 1296T396 1351T427 1446H542V0H380Z" />
<glyph unicode="2" horiz-adv-x="1171" d="M128 0V105V160Q128 271 169 352T279 494T430 603T593 698T743 794T853 909T895 1062Q895 1180 813 1252T591 1325Q440 1325 351 1241T253 1020H95Q98 1142 156 1243T325 1405T598 1466Q738 1466 842 1416T1003 1274T1060
1062Q1060 950 1019 870T910 730T762 623T600 532T451 439T342 327T301 175V142H1070V0H128Z" />
<glyph unicode="3" horiz-adv-x="1242" d="M121 1031Q121 1167 187 1264T363 1414T606 1466Q753 1466 864 1422T1039 1296T1103 1097Q1103 990 1033 902T823 765Q922 738 994 687T1104 562T1143 396Q1143 300 1103 222T990 89T817 6T598 -22Q455 -20 345 33T169
181T99 407H258Q278 270 371 193T606 116Q717 116 799 151T928 250T974 396Q974 490 922 554T782 651T586 685L458 687V824L581 826Q682 827 761 864T887 962T934 1093Q934 1155 896 1209T785 1298T606 1332Q526 1332 452 1300T329 1201T278 1031H121Z" />
<glyph unicode="4" horiz-adv-x="1242" d="M773 1446H934V524H1178V383H934V0H780V383H95V532L773 1446ZM247 524H775V1233L247 524Z" />
<glyph unicode="5" horiz-adv-x="1262" d="M233 1446H1078L1074 1308H370L331 809Q401 881 490 912T683 943Q810 943 919 890T1096 733T1163 474Q1163 324 1100 213T920 40T648 -22Q517 -22 405 26T214 159T99 358L240 407Q274 320 330 254T464 151T640 113Q801
113 898 207T996 469Q996 572 949 648T825 765T655 807Q593 807 538 796T431 752T323 653Q318 651 316 651T308 654L168 689L233 1446Z" />
<glyph unicode="6" horiz-adv-x="1225" d="M653 1466Q769 1466 867 1423T1030 1298T1114 1101H965Q936 1206 856 1269T655 1333Q521 1333 431 1257T300 1032T269 664Q295 744 351 805T485 900T653 934Q795 934 901 879T1066 720T1126 472Q1126 326 1067 215T898
41T636 -22Q473 -22 352 64T165 313T99 702Q99 933 162 1105T348 1371T653 1466ZM634 802Q549 802 473 763T349 657T301 509Q300 394 341 305T459 164T636 112Q730 112 802 156T916 280T957 465Q957 569 921 644T812 761T634 802Z" />
<glyph unicode="7" horiz-adv-x="1187" d="M95 1446H1092V1308Q1013 1197 936 1059T790 773T666 481T574 213T525 0H355Q374 102 417 251T531 576T697 940T917 1308H95V1446Z" />
<glyph unicode="8" horiz-adv-x="1283" d="M640 1466Q777 1466 885 1421T1055 1288T1118 1075Q1118 956 1055 876T887 753Q962 739 1030 684T1141 551T1184 389Q1184 265 1117 173T928 29T640 -22Q477 -22 355 29T166 172T99 389Q99 473 142 551T252 684T395 753Q293
795 228 875T162 1075Q162 1200 225 1287T396 1420T640 1466ZM640 822Q782 822 869 889T956 1080Q956 1202 869 1273T640 1344Q501 1344 413 1273T325 1080Q325 957 413 890T640 822ZM640 108Q811 108 913 184T1015 388Q1015 472 969 537T839 640T640 678Q528 678
445 641T315 538T268 388Q268 261 370 185T640 108Z" />
<glyph unicode="9" horiz-adv-x="1230" d="M571 -22Q455 -22 355 22T187 147T101 342H254Q281 239 364 176T566 112Q701 112 796 183T937 404T973 785Q950 702 894 640T760 542T586 506Q444 506 337 561T169 721T109 972Q109 1118 167 1229T335 1403T596 1466Q759
1466 879 1380T1065 1132T1131 742Q1131 504 1067 333T877 70T571 -22ZM598 642Q683 642 759 681T883 788T931 936Q932 1051 891 1140T773 1282T595 1334Q502 1334 431 1290T319 1165T279 980Q279 826 359 734T598 642Z" />
<glyph unicode=":" horiz-adv-x="427" d="M307 988V775H113V988H307ZM307 218V6H113V218H307Z" />
<glyph unicode=";" horiz-adv-x="460" d="M113 -279L223 0H146V212H340V25L183 -279H113ZM138 772V987H332V772H138Z" />
<glyph unicode="&lt;" horiz-adv-x="1074" d="M948 446V297L125 619V767L949 1095V942L318 693L948 446Z" />
<glyph unicode="=" horiz-adv-x="1091" d="M966 984V859L125 858V982L966 984ZM966 544V419L125 418V542L966 544Z" />
<glyph unicode="&gt;" horiz-adv-x="1073" d="M127 446L757 693L125 942V1095L948 767V619L127 297V446Z" />
<glyph unicode="?" horiz-adv-x="1025" d="M580 212V0H387V212H580ZM53 1188Q116 1318 240 1392T519 1466Q651 1466 749 1422T900 1299T954 1117Q954 1014 914 938T813 798T693 670T593 530T552 350H414Q414 465 452 550T547 702T659 831T753 960T792 1112Q792
1218 717 1279T518 1341Q450 1341 384 1315T268 1243T195 1142L53 1188Z" />
<glyph unicode="@" horiz-adv-x="1660" d="M1307 -69Q1218 -138 1101 -179T848 -220Q671 -220 532 -163T295 -6T146 226T95 509Q95 667 151 807T311 1056T558 1226T878 1288Q1004 1288 1126 1252T1347 1140T1506 946T1565 663Q1565 514 1516 400T1381 222T1188
158Q1113 158 1071 184T1014 263Q1010 276 1006 276T991 266Q948 208 882 169T720 130Q647 130 585 172T484 292T446 475Q446 599 494 701T626 865T822 926Q902 926 958 892T1048 801Q1051 797 1055 798T1061 807L1079 876H1193L1118 428Q1103 340 1124 306T1197
272Q1262 272 1317 317T1405 448T1439 651Q1439 794 1390 894T1258 1057T1077 1149T877 1178Q720 1178 598 1125T392 979T265 765T221 507Q221 378 263 266T388 69T593 -63T876 -110Q965 -110 1027 -93T1140 -47T1241 17L1307 -69ZM583 483Q583 376 625 313T745
249Q810 249 865 287T958 389T1007 527Q1019 620 996 682T928 776T830 808Q756 808 701 764T614 647T583 483Z" />
<glyph unicode="A" horiz-adv-x="1412" d="M90 0L616 1446H798L1322 0H1161L1013 412H402L250 0H90ZM444 560H968L708 1290L444 560Z" />
<glyph unicode="B" horiz-adv-x="1333" d="M199 0V1446H648Q906 1446 1041 1350T1177 1070Q1177 953 1116 870T904 737Q988 720 1047 687T1142 609T1195 508T1212 388Q1212 193 1072 97T660 0H199ZM355 135H656Q851 135 953 196T1055 391Q1055 489 1005 549T869
636T680 663H355V135ZM355 800H680Q740 800 800 811T912 851T994 927T1025 1050Q1025 1186 922 1249T652 1313H355V800Z" />
<glyph unicode="C" horiz-adv-x="1361" d="M715 1466Q865 1466 981 1403T1167 1236T1250 1010H1082Q1065 1097 1019 1169T895 1284T712 1327Q572 1327 477 1262T333 1064T284 724Q284 414 392 267T712 120Q818 120 895 164T1018 282T1082 443H1250Q1239 354 1201
271T1096 122T934 18T715 -20Q522 -20 388 67T182 321T111 726Q111 964 181 1129T387 1380T715 1466Z" />
<glyph unicode="D" horiz-adv-x="1373" d="M199 1446Q204 1446 235 1446T313 1445T411 1446T509 1444Q775 1441 941 1360T1184 1122T1261 733Q1261 489 1178 326T923 82T487 0H199V1446ZM361 1308V138H486Q680 138 816 195T1025 382T1097 728Q1097 948 1026 1074T820
1254T495 1308H361Z" />
<glyph unicode="E" horiz-adv-x="1234" d="M199 0V1446H1088V1306H355V800H1021V660H355V144L1110 143V0H199Z" />
<glyph unicode="F" horiz-adv-x="1177" d="M199 1446H1077V1307H361V798H1010V659H361V0H199V1446Z" />
<glyph unicode="G" horiz-adv-x="1452" d="M715 -20Q527 -20 392 66T184 318T111 720Q111 957 185 1124T396 1378T721 1466Q825 1466 918 1429T1084 1328T1201 1181T1252 1010H1084Q1070 1093 1020 1164T892 1280T719 1324Q587 1324 488 1260T334 1062T279 723Q279
565 312 451T404 265T544 158T723 123Q820 123 892 157T1012 247T1085 365T1112 487L1116 626H750V744L1277 743V0H1155V229Q1117 163 1058 107T914 15T715 -20Z" />
<glyph unicode="H" horiz-adv-x="1530" d="M1175 679H355V0H199V1446H355V820H1175V1446H1331V0H1175V679Z" />
<glyph unicode="I" horiz-adv-x="553" d="M199 1446H355V0H199V1446Z" />
<glyph unicode="J" horiz-adv-x="770" d="M611 325Q611 216 586 139T498 21T321 -20Q242 -20 176 0T90 29L105 181Q137 169 178 151T284 132Q381 132 418 186T455 371V1446H611V325Z" />
<glyph unicode="K" horiz-adv-x="1346" d="M1270 0H1091L622 762L361 467V0H199V1446H361V675L1042 1446H1232L736 875L1270 0Z" />
<glyph unicode="L" horiz-adv-x="1155" d="M200 1446H361V145H1059V0H199L200 1446Z" />
<glyph unicode="M" horiz-adv-x="1753" d="M199 0V1446H409L874 207L1346 1446H1554V0H1392V1186L953 0H796L361 1174V0H199Z" />
<glyph unicode="N" horiz-adv-x="1493" d="M1138 1446H1294V0H1155L355 1180V0H199V1446H345L1138 277V1446Z" />
<glyph unicode="O" horiz-adv-x="1453" d="M729 -20Q539 -20 401 66T187 318T111 720Q111 959 186 1125T401 1379T729 1466Q918 1466 1055 1379T1267 1126T1342 720Q1342 483 1268 318T1057 67T729 -20ZM729 120Q871 120 969 184T1119 381T1170 719Q1170 927 1118
1061T968 1261T729 1327Q589 1327 490 1261T337 1060T284 719Q284 513 337 381T489 184T729 120Z" />
<glyph unicode="P" horiz-adv-x="1264" d="M199 0V1446H676Q830 1446 950 1395T1139 1243T1208 994Q1208 849 1143 748T964 593T698 540H361V0H199ZM360 677H695Q854 677 953 764T1053 1003Q1053 1157 951 1234T684 1311H360V677Z" />
<glyph unicode="Q" horiz-adv-x="1481" d="M111 720Q111 960 186 1126T400 1379T728 1466Q918 1466 1056 1380T1268 1127T1342 720Q1342 490 1274 326T1049 67Q1089 -20 1164 -60T1329 -105V-241Q1265 -241 1188 -223T1035 -154T900 -1Q851 -10 810 -15T728 -20Q540
-20 402 64T187 314T111 720ZM284 716Q284 409 400 265T728 120Q940 120 1056 265T1172 719Q1172 1024 1058 1175T728 1327Q513 1327 399 1175T284 716Z" />
<glyph unicode="R" horiz-adv-x="1342" d="M1209 0H1042L770 641H355V0H199V1446H745Q897 1446 1000 1401T1156 1269T1209 1061Q1209 943 1166 865T1056 740T920 670L1209 0ZM683 775Q859 775 953 842T1048 1050Q1048 1185 965 1249T733 1314H355V775H683Z" />
<glyph unicode="S" horiz-adv-x="1336" d="M676 -20Q575 -20 482 5T312 81T185 204T120 376H285Q305 289 361 231T499 143T675 113Q783 113 867 144T999 232T1048 365Q1048 434 1019 485T934 570T795 625L503 695Q344 731 255 818T164 1049Q164 1171 228 1264T406
1411T668 1464Q839 1464 953 1405T1127 1251T1186 1050H1023Q1014 1154 962 1215T834 1302T668 1328Q606 1328 546 1312T436 1262T358 1179T329 1062Q329 980 385 929T589 839L872 770Q974 747 1039 704T1142 606T1193 489T1208 368Q1208 261 1146 173T965 33T676
-20Z" />
<glyph unicode="T" horiz-adv-x="1174" d="M49 1301V1446H1126V1301H680V0H523V1301H49Z" />
<glyph unicode="U" horiz-adv-x="1388" d="M1229 486Q1229 322 1175 209T1006 38T713 -20Q532 -20 419 39T252 217T199 508V1446H362V479Q362 299 451 209T713 119Q829 119 909 158T1030 278T1072 479V1446H1229V486Z" />
<glyph unicode="V" horiz-adv-x="1313" d="M1265 1446L749 0H555L49 1446H205L653 176L1110 1446H1265Z" />
<glyph unicode="W" horiz-adv-x="1899" d="M1850 1446L1430 0H1276L946 1169L611 0H462L49 1446H208L542 241L884 1446H1011L1350 241L1692 1446H1850Z" />
<glyph unicode="X" horiz-adv-x="1361" d="M1271 0H1078L669 617L265 0H90L583 739L109 1446H301L680 872L1056 1446H1230L765 753L1271 0Z" />
<glyph unicode="Y" horiz-adv-x="1182" d="M1157 1446L671 617V0H516V619L25 1446H196L594 760L986 1446H1157Z" />
<glyph unicode="Z" horiz-adv-x="1256" d="M133 0V91L941 1308H162V1446H1156V1359L343 140H1153V0H133Z" />
<glyph unicode="[" horiz-adv-x="588" d="M188 1446H538V1340H330L328 -216H536V-322H189L188 1446Z" />
<glyph unicode="\" horiz-adv-x="685" d="M523 -88L25 1446H153L652 -88H523Z" />
<glyph unicode="]" horiz-adv-x="619" d="M394 1446H44V1340H252L254 -216H46V-322H393L394 1446Z" />
<glyph unicode="^" horiz-adv-x="940" d="M705 260L465 864L224 263H95L389 982Q407 1027 435 1043T493 1046T542 983L838 260H705Z" />
<glyph unicode="_" horiz-adv-x="1016" d="M888 -98V-225L125 -226V-100L888 -98Z" />
<glyph unicode="`" horiz-adv-x="412" d="M196 1446H10L278 1155H402L196 1446Z" />
<glyph unicode="a" horiz-adv-x="1124" d="M443 -20Q342 -20 266 15T148 117T105 276Q105 448 222 531T603 621L803 627V713Q803 814 742 874T552 934Q456 934 386 890T296 747H154Q160 844 209 912T347 1017T560 1054Q688 1054 775 1017T908 905T953 720V0H819L808
199Q746 76 651 28T443 -20ZM487 97Q543 97 598 117T700 172T774 250T803 338V522L636 519Q505 517 422 493T298 420T257 290Q257 199 321 148T487 97Z" />
<glyph unicode="b" horiz-adv-x="1185" d="M654 -20Q559 -20 495 5T390 69T329 146T299 212L283 0H160V1486H318V864Q329 887 355 919T423 982T525 1033T664 1054Q858 1054 974 920T1090 521Q1090 358 1042 237T897 48T654 -20ZM629 104Q764 104 847 207T931 531Q931
717 854 823T625 929Q514 929 447 882T350 745T318 531Q318 305 389 205T629 104Z" />
<glyph unicode="c" horiz-adv-x="1079" d="M564 1054Q671 1054 758 1014T902 900T975 720H832Q822 778 787 824T696 898T565 925Q424 925 336 825T247 515Q247 328 327 216T567 103Q641 103 697 130T789 204T833 307H974Q959 205 901 132T757 19T564 -20Q426 -20
320 40T155 219T95 514Q95 675 149 796T307 986T564 1054Z" />
<glyph unicode="d" horiz-adv-x="1185" d="M531 -20Q331 -20 213 116T95 521Q95 682 142 801T283 987T520 1054Q600 1054 660 1034T762 982T830 919T867 864V1486H1025V0H902L886 212Q877 185 856 146T795 69T690 6T531 -20ZM555 104Q725 104 796 204T867 531Q866
656 835 745T738 881T560 929Q423 929 339 833T254 531Q254 331 329 218T555 104Z" />
<glyph unicode="e" horiz-adv-x="1123" d="M264 481Q264 377 298 292T403 156T583 105Q688 105 764 154T859 295H1009Q990 191 927 121T774 16T585 -20Q443 -20 335 42T166 223T105 507Q105 672 160 795T319 986T572 1054Q715 1054 814 993T965 817T1017 545V481H264ZM265
592H865Q865 688 833 765T736 887T571 932Q465 932 398 882T297 753T265 592Z" />
<glyph unicode="f" horiz-adv-x="814" d="M731 1034V917H471V0H315V917H89V1034H315V1198Q315 1320 375 1383T558 1446H741V1332H582Q516 1332 493 1297T469 1190V1034H731Z" />
<glyph unicode="g" horiz-adv-x="1238" d="M585 -342Q350 -342 217 -272T83 -65Q83 -8 108 32T169 100T236 143T277 168Q259 179 235 193T194 231T176 292Q176 339 220 378T351 438Q263 484 213 558T162 722Q162 822 213 896T363 1010T601 1050Q700 1050 769 1027T897
958Q912 965 945 979T1020 1009T1096 1041T1150 1064V908L968 872Q985 838 995 799T1005 723Q1005 631 959 558T820 442T584 400Q574 400 559 400T533 401Q414 398 370 375T325 325Q325 295 370 283T527 262Q568 260 625 257T754 249Q909 240 995 169T1082 -27Q1082
-166 960 -254T585 -342ZM614 -235Q763 -235 846 -189T929 -47Q929 19 880 61T732 111L427 130Q390 132 346 110T271 46T239 -47Q239 -135 330 -185T614 -235ZM589 506Q708 506 781 560T855 722Q855 833 782 890T589 947Q467 947 393 890T318 722Q318 619 388 563T589
506Z" />
<glyph unicode="h" horiz-adv-x="1145" d="M160 0V1486H311V882Q338 926 383 964T493 1025T641 1049Q743 1049 824 1012T954 907T1002 747V0H846V712Q846 810 779 864T602 919Q527 919 462 895T356 822T316 698V0H160Z" />
<glyph unicode="i" horiz-adv-x="516" d="M335 1034V0H183V1034H335ZM340 1445V1273H176V1445H340Z" />
<glyph unicode="j" horiz-adv-x="511" d="M345 -61Q345 -199 288 -265T79 -332Q-7 -332 -28 -321T-49 -310L-50 -206L58 -202Q130 -197 159 -164T189 -53V1034H345V-61ZM351 1445V1273H182V1445H351Z" />
<glyph unicode="k" horiz-adv-x="1119" d="M1043 0H874L538 539L315 310V0H160V1486H315V493L830 1034H1014L642 645L1043 0Z" />
<glyph unicode="l" horiz-adv-x="581" d="M402 -11Q328 -11 281 10T207 70T170 157T160 260V1486H314V273Q314 188 346 149T430 106L488 105V3Q466 -4 443 -7T402 -11Z" />
<glyph unicode="m" horiz-adv-x="1713" d="M160 0V1034H310V883Q351 952 424 1003T618 1054Q676 1054 735 1035T843 978T918 884Q966 962 1048 1008T1234 1054Q1288 1054 1346 1038T1456 982T1538 867T1570 675V0H1414V661Q1414 764 1382 819T1299 897T1190 919Q1138
919 1081 900T983 832T942 699V0H786V723Q786 788 752 831T666 897T564 919Q508 919 451 897T355 826T316 699V0H160Z" />
<glyph unicode="n" horiz-adv-x="1145" d="M160 0V1034H310V883Q336 928 381 966T492 1027T640 1050Q740 1050 822 1011T954 888T1003 675V0H847V661Q847 793 780 856T603 919Q528 919 462 895T356 822T316 699V0H160Z" />
<glyph unicode="o" horiz-adv-x="1120" d="M562 -20Q422 -20 317 40T153 220T95 513Q95 675 148 797T306 986T563 1054Q703 1054 806 993T967 811T1025 513Q1025 355 973 235T819 48T562 -20ZM563 106Q660 106 728 154T833 294T870 517Q870 635 838 728T738 874T563
928Q464 928 395 881T288 741T251 517Q251 399 283 307T385 160T563 106Z" />
<glyph unicode="p" horiz-adv-x="1182" d="M160 -322V1034H315L318 845Q333 876 360 912T430 980T529 1033T662 1054Q788 1054 884 998T1033 826T1087 532Q1087 358 1037 235T889 46T652 -20Q577 -20 521 1T425 56T359 126T317 196V-322H160ZM626 105Q763 105
848 208T934 526Q934 710 857 819T626 929Q474 929 395 818T315 526Q315 408 350 313T455 161T626 105Z" />
<glyph unicode="q" horiz-adv-x="1182" d="M1022 -322H865V196Q850 163 824 127T758 56T662 1T531 -20Q404 -20 306 38T151 219T95 532Q95 695 143 812T286 991T520 1054Q596 1054 653 1034T752 981T821 912T865 845L868 1034H1022V-322ZM556 105Q658 105 727
161T832 312T867 526Q867 707 789 818T556 929Q420 929 334 830T248 526Q248 332 326 219T556 105Z" />
<glyph unicode="r" horiz-adv-x="765" d="M160 0V1034H308V847Q334 920 381 965T488 1032T609 1054Q634 1054 658 1051T696 1039V887Q680 895 654 898T609 901Q554 904 502 893T408 854T341 779T316 664V0H160Z" />
<glyph unicode="s" horiz-adv-x="1016" d="M516 -20Q408 -20 318 13T169 116T95 294H240Q254 232 291 189T385 124T516 101Q626 101 693 143T760 274Q760 335 726 372T621 426L398 483Q276 514 204 576T131 751Q131 840 173 908T301 1015T514 1054Q677 1054 777
981T883 763H741Q731 842 673 888T513 935Q408 935 343 892T277 759Q277 699 322 666T453 610L671 553Q739 535 783 506T854 440T892 362T904 283Q904 190 859 122T728 17T516 -20Z" />
<glyph unicode="t" horiz-adv-x="794" d="M675 917H441V250Q441 190 452 163T493 128T576 120H682V12Q663 5 626 1T536 -4Q437 -4 383 24T306 107T284 245V917H116V1034H288L325 1332H441V1035H675V917Z" />
<glyph unicode="u" horiz-adv-x="1136" d="M540 -20Q457 -19 385 3T259 70T174 181T143 336V1034H299V350Q299 241 365 174T568 106Q690 106 764 169T838 362V1034H993V0H867L851 196Q833 122 789 74T681 3T540 -20Z" />
<glyph unicode="v" horiz-adv-x="997" d="M946 1034L578 0H421L52 1034H201L489 193H508L799 1034H946Z" />
<glyph unicode="w" horiz-adv-x="1567" d="M1503 1034L1197 0H1029L782 801L548 0H380L65 1034H212L460 198H478L723 1034H844L1099 200H1118L1355 1034H1503Z" />
<glyph unicode="x" horiz-adv-x="1113" d="M1045 0H872L556 424L243 0H69L468 537L100 1034H274L557 651L841 1034H1014L646 537L1045 0Z" />
<glyph unicode="y" horiz-adv-x="1052" d="M246 -330Q159 -330 128 -319T97 -307V-205L203 -206Q258 -208 295 -198T356 -171T392 -132T415 -89L456 20L52 1034H210L531 202L848 1034H1001L561 -97Q524 -187 478 -237T373 -309T246 -330Z" />
<glyph unicode="z" horiz-adv-x="944" d="M80 0V103L684 917H105V1034H867V932L265 118H873V0H80Z" />
<glyph unicode="{" horiz-adv-x="625" d="M241 1250Q241 1310 272 1354T358 1422T486 1446H575V1340H507Q458 1340 431 1329T394 1294T383 1238V805Q382 729 355 679T284 604T190 573Q178 572 178 567T190 559Q238 555 282 532T354 459T383 328V-109Q383 -164
409 -190T509 -216H575V-322H489Q411 -322 356 -297T271 -227T241 -120V319Q241 366 217 411T142 485T15 514V616Q131 618 186 675T241 821V1250Z" />
<glyph unicode="|" horiz-adv-x="524" d="M325 -322H200L199 1652H325V-322Z" />
<glyph unicode="}" horiz-adv-x="636" d="M375 1250Q375 1310 344 1354T258 1422T130 1446H41V1340H109Q158 1340 185 1329T222 1294T233 1238V805Q234 729 261 679T332 604T426 573Q438 572 438 567T426 559Q378 555 334 532T262 459T233 328V-109Q233 -164 207
-190T107 -216H41V-322H127Q205 -322 260 -297T345 -227T375 -120V319Q375 366 399 411T474 485T601 514V616Q485 618 430 675T375 821V1250Z" />
<glyph unicode="~" horiz-adv-x="1112" d="M990 744Q958 695 897 660T746 625Q687 625 641 640T554 675T472 710T378 725Q302 725 252 692T163 618L118 712Q169 762 228 799T375 837Q431 837 477 822T565 787T651 752T745 737Q821 737 866 769T942 840L990 744Z" />
<glyph unicode="&#xa0;" horiz-adv-x="471" />
<glyph unicode="&#xa1;" horiz-adv-x="483" d="M335 823H143V1034H335V823ZM335 -322H145L186 687H293L335 -322Z" />
<glyph unicode="&#xa2;" horiz-adv-x="1077" d="M632 0H511V273H632V0ZM632 1174H511V1446H632V1174ZM574 1276Q681 1276 768 1236T912 1122T985 942H842Q832 1000 797 1046T706 1120T575 1147Q434 1147 346 1047T257 737Q257 550 337 438T577 325Q651 325 707
352T799 426T843 529H984Q969 427 911 354T767 241T574 202Q436 202 330 262T165 441T105 736Q105 897 159 1018T317 1208T574 1276Z" />
<glyph unicode="&#xa3;" horiz-adv-x="1207" d="M28 0V137H105Q181 137 234 207T288 429Q288 481 283 542T264 691H62V797H245L213 958Q187 1077 210 1170T291 1330T433 1431T611 1466Q702 1466 781 1436T919 1355T1003 1242L864 1190Q829 1258 775 1293T629 1328Q558
1328 500 1300T407 1220T373 1091Q373 1030 386 952T423 798H753V692H437Q449 621 453 567T453 458Q451 364 431 301T384 199T337 139H706Q810 139 873 175T972 302L1107 264Q1061 132 962 66T714 0H28Z" />
<glyph unicode="&#xa4;" horiz-adv-x="1058" d="M526 360Q412 360 321 421Q306 432 295 419L190 312L110 397L226 511Q192 559 175 612T158 728Q158 841 218 929Q227 944 216 955L112 1061L193 1142L309 1023Q354 1057 410 1075T523 1093Q637 1093 725 1031Q740
1023 750 1033L857 1140L937 1058L820 941Q853 895 871 841T889 728Q889 673 874 621T828 527Q820 513 830 504L938 400L858 318L742 433Q695 399 640 380T526 360ZM527 485Q596 485 651 519T737 608T769 728Q769 792 738 847T651 936T527 971Q458 971 403 937T316
847T284 728Q284 663 316 608T403 519T527 485Z" />
<glyph unicode="&#xa5;" horiz-adv-x="1197" d="M1182 1446L693 638V0H515V605L15 1446H218L615 762L1013 1446H1182ZM1000 672V567L208 566V671L1000 672ZM1000 384V279L208 278V382L1000 384Z" />
<glyph unicode="&#xa6;" horiz-adv-x="524" d="M325 854H200L199 1652H325V854ZM325 -322H200L199 476H325V-322Z" />
<glyph unicode="&#xa7;" horiz-adv-x="969" d="M501 -140Q407 -140 324 -111T176 -29T78 91L184 149Q231 74 312 24T503 -26Q603 -26 669 13T735 127Q735 180 693 227T531 321L355 389Q220 441 162 511T103 675Q103 767 160 833T305 934Q224 976 182 1018T124
1103T108 1194Q108 1271 153 1332T281 1430T475 1466Q563 1466 636 1438T765 1365T853 1267L746 1208Q699 1268 634 1310T485 1352Q377 1352 317 1312T256 1206Q256 1161 292 1119T423 1037L592 969Q746 907 812 830T879 651Q879 551 825 492T697 396Q787 345 835
285T884 141Q884 60 837 -3T704 -103T501 -140ZM547 462Q598 458 641 480T711 542T736 629Q735 692 701 739T561 828L447 873Q391 868 345 842T271 777T243 694Q243 638 278 600T423 515L547 462Z" />
<glyph unicode="&#xa8;" horiz-adv-x="545" d="M378 1225L379 1388H535L534 1225H378ZM10 1225L11 1388H167L166 1225H10Z" />
<glyph unicode="&#xa9;" horiz-adv-x="1626" d="M811 -20Q657 -20 522 37T285 197T126 434T68 724Q68 877 125 1011T285 1248T522 1408T811 1466Q964 1466 1098 1408T1335 1248T1496 1012T1554 724Q1554 569 1496 434T1336 197T1099 38T811 -20ZM811 94Q938 94
1050 138T1248 265T1384 464T1433 724Q1433 866 1384 982T1249 1181T1050 1310T811 1355Q681 1355 568 1310T370 1182T236 982T188 724Q188 580 236 464T369 266T568 139T811 94ZM816 1147Q896 1147 957 1118T1064 1040T1141 935L1022 900Q985 966 936 1004T822
1043Q714 1043 646 959T577 731Q577 584 646 500T825 415Q902 415 959 458T1053 570L1145 533Q1123 490 1091 450T1018 379T927 330T816 311Q703 311 618 363T485 509T437 727Q437 851 485 945T619 1093T816 1147Z" />
<glyph unicode="&#xaa;" horiz-adv-x="845" d="M322 792Q219 792 162 840T105 972Q105 1066 187 1121T425 1188L544 1198V1246Q544 1315 503 1345T391 1376Q336 1376 295 1356T219 1278L121 1307Q156 1381 224 1421T399 1462Q529 1461 591 1403T654 1244Q654 1164
654 1108T654 1013Q654 996 655 973T657 926T662 879L674 804H559L542 893Q489 841 438 817T322 792ZM357 874Q437 874 494 927Q518 948 531 968T544 1013V1122L445 1114Q332 1107 276 1071T220 977Q220 930 258 902T357 874Z" />
<glyph unicode="&#xab;" horiz-adv-x="885" d="M571 502L780 144H689L421 502L690 877H783L571 502ZM225 502L434 144H343L75 502L344 877H437L225 502Z" />
<glyph unicode="&#xac;" horiz-adv-x="1091" d="M966 790V665L125 664V788L966 790ZM966 754V382H834L833 754H966Z" />
<glyph unicode="&#xad;" horiz-adv-x="747" d="M622 581V454L125 453V580L622 581Z" />
<glyph unicode="&#xae;" horiz-adv-x="1070" d="M534 536Q404 536 299 598T131 765T68 1000Q68 1129 130 1235T298 1403T534 1466Q662 1466 767 1404T935 1235T998 1000Q998 871 936 766T768 598T534 536ZM533 622Q644 622 728 668T859 800T907 1000Q907 1115
860 1200T728 1333T533 1381Q422 1381 337 1334T205 1201T158 1000Q158 884 205 800T337 669T533 622ZM357 767V1228H563Q637 1228 678 1199T719 1112Q719 1058 688 1030T621 988L710 767H625L546 981H436V767H357ZM436 1046H552Q587 1046 612 1058T637 1105Q637
1129 619 1147T546 1165H436V1046Z" />
<glyph unicode="&#xaf;" horiz-adv-x="621" d="M592 1358V1243H24V1358H592Z" />
<glyph unicode="&#xb0;" horiz-adv-x="920" d="M765 1364Q765 1274 725 1205T616 1096T458 1057Q368 1057 299 1096T190 1204T150 1364Q150 1454 189 1524T298 1634T458 1674Q546 1674 615 1634T725 1524T765 1364ZM648 1362Q648 1451 596 1507T454 1563Q366 1563
314 1507T262 1362Q264 1273 315 1217T456 1161Q545 1161 596 1217T648 1362Z" />
<glyph unicode="&#xb1;" horiz-adv-x="1091" d="M966 255V131L125 129V253L966 255ZM966 938V814L125 812V937L966 938ZM608 456H485L484 1297H608V456Z" />
<glyph unicode="&#xb2;" horiz-adv-x="720" d="M67 747V816V850Q67 932 101 988T190 1086T306 1160T422 1227T511 1306T546 1413Q546 1485 496 1529T360 1573Q271 1573 214 1523T152 1383H47Q47 1461 83 1525T191 1629T365 1669Q498 1669 577 1599T656 1413Q656
1331 622 1275T534 1179T420 1107T305 1042T217 966T183 859V843H663V747H67Z" />
<glyph unicode="&#xb3;" horiz-adv-x="790" d="M79 1391Q79 1475 119 1537T228 1634T386 1669Q479 1669 549 1641T658 1561T698 1436Q698 1368 656 1315T532 1230Q620 1204 672 1146T725 999Q725 917 680 858T558 767T381 736Q242 738 156 813T66 1009H172Q184
923 242 877T385 830Q488 830 549 876T611 998Q611 1079 547 1127T373 1176L291 1177V1269L370 1271Q430 1271 479 1293T557 1352T586 1433Q586 1490 535 1533T386 1577Q337 1577 291 1557T215 1496T185 1391H79Z" />
<glyph unicode="&#xb4;" horiz-adv-x="412" d="M216 1446H402L134 1155H10L216 1446Z" />
<glyph unicode="&#xb5;" horiz-adv-x="1144" d="M143 -330V1060H302V320Q302 269 331 226T410 156T520 130Q607 130 686 180T840 316V1060H1001L999 0H846V164Q748 82 677 45T526 5Q462 2 407 17T302 73V-330H143Z" />
<glyph unicode="&#xb6;" d="M952 1347H831V-166H724V1347H627V-166H518V594Q388 597 293 653T147 803T95 1008Q95 1119 146 1219T298 1383T552 1446H952V1347Z" />
<glyph unicode="&#xb7;" horiz-adv-x="444" d="M323 830V628H113V830H323Z" />
<glyph unicode="&#xb8;" horiz-adv-x="439" d="M411 -256Q411 -306 382 -339T305 -390T200 -408Q149 -408 105 -396T21 -359L50 -287Q74 -306 106 -319T182 -333Q239 -333 265 -313T292 -257Q292 -213 255 -192T135 -168Q126 -168 124 -165T124 -156L197 10H286L238
-111Q304 -115 341 -137T395 -191T411 -256Z" />
<glyph unicode="&#xb9;" horiz-adv-x="470" d="M225 744V1473H47V1550Q166 1549 209 1572T254 1654H334V744H225Z" />
<glyph unicode="&#xba;" horiz-adv-x="809" d="M404 1465Q500 1465 569 1422T676 1303T714 1127Q714 1030 677 955T571 838T404 795Q307 795 238 837T132 955T95 1127Q95 1228 133 1304T241 1422T404 1465ZM404 1376Q311 1376 264 1310T217 1132Q217 1016 264
949T404 882Q498 882 545 949T593 1132Q593 1244 546 1310T404 1376Z" />
<glyph unicode="&#xbb;" horiz-adv-x="940" d="M337 502L125 877H216L485 502L218 144H128L337 502ZM683 502L471 877H562L831 502L563 144H474L683 502Z" />
<glyph unicode="&#xbc;" horiz-adv-x="1562" d="M225 536V1265H47V1342Q166 1341 209 1364T254 1446H334V536H225ZM1290 1462L318 -8L205 -7L1182 1462H1290ZM1257 911H1364V335H1516V240H1364V2H1260V240H834V338L1257 911ZM939 335H1258V763L939 335Z" />
<glyph unicode="&#xbd;" horiz-adv-x="1714" d="M225 536V1265H47V1342Q166 1341 209 1364T254 1446H334V536H225ZM1290 1462L318 -8L205 -7L1182 1462H1290ZM1061 -1V68V102Q1061 184 1095 240T1184 338T1300 412T1416 479T1505 558T1540 665Q1540 737 1490 781T1354
825Q1265 825 1208 775T1146 635H1041Q1041 713 1077 777T1185 881T1359 921Q1492 921 1571 851T1650 665Q1650 583 1616 527T1528 431T1414 359T1299 294T1211 218T1177 111V95H1657V-1H1061Z" />
<glyph unicode="&#xbe;" horiz-adv-x="1815" d="M79 1181Q79 1265 119 1327T228 1424T386 1459Q479 1459 549 1431T658 1351T698 1226Q698 1158 656 1105T532 1020Q620 994 672 936T725 789Q725 707 680 648T558 557T381 526Q242 528 156 603T66 799H172Q184 713
242 667T385 620Q488 620 549 666T611 788Q611 869 547 917T373 966L291 967V1059L370 1061Q430 1061 479 1083T557 1142T586 1223Q586 1280 535 1323T386 1367Q337 1367 291 1347T215 1286T185 1181H79ZM1542 1462L570 -8L457 -7L1434 1462H1542ZM1509 911H1616V335H1768V240H1616V2H1512V240H1086V338L1509
911ZM1191 335H1510V763L1191 335Z" />
<glyph unicode="&#xbf;" horiz-adv-x="1022" d="M437 823V1034H631V823H437ZM964 -63Q901 -193 778 -267T498 -342Q360 -342 263 -297T115 -173T63 9Q63 92 92 151T166 256T263 344T360 433T435 542T465 689H603Q603 593 576 524T505 403T414 308T322 223T252
131T225 15Q225 -90 300 -152T499 -214Q567 -214 633 -188T749 -116T822 -16L964 -63Z" />
<glyph unicode="&#xc0;" horiz-adv-x="1412" d="M90 0L616 1446H798L1322 0H1161L1013 412H402L250 0H90ZM444 560H968L708 1290L444 560ZM562 1858H376L644 1567H768L562 1858Z" />
<glyph unicode="&#xc1;" horiz-adv-x="1412" d="M90 0L616 1446H798L1322 0H1161L1013 412H402L250 0H90ZM444 560H968L708 1290L444 560ZM846 1858H1032L764 1567H640L846 1858Z" />
<glyph unicode="&#xc2;" horiz-adv-x="1412" d="M90 0L616 1446H798L1322 0H1161L1013 412H402L250 0H90ZM444 560H968L708 1290L444 560ZM847 1567L705 1694L553 1567H403L650 1782H764L1007 1567H847Z" />
<glyph unicode="&#xc3;" horiz-adv-x="1412" d="M90 0L616 1446H798L1322 0H1161L1013 412H402L250 0H90ZM444 560H968L708 1290L444 560ZM998 1697Q973 1680 934 1662T833 1643Q780 1643 742 1655T667 1680T587 1693Q538 1693 509 1677T451 1639L420 1737Q452
1766 488 1786T579 1807Q626 1807 667 1794T749 1767T834 1753Q877 1753 907 1768T967 1805L998 1697Z" />
<glyph unicode="&#xc4;" horiz-adv-x="1412" d="M90 0L616 1446H798L1322 0H1161L1013 412H402L250 0H90ZM444 560H968L708 1290L444 560ZM812 1637L813 1800H969L968 1637H812ZM444 1637L445 1800H601L600 1637H444Z" />
<glyph unicode="&#xc5;" horiz-adv-x="1412" d="M90 0L616 1446H798L1322 0H1161L1013 412H402L250 0H90ZM444 560H968L708 1290L444 560ZM911 1774Q911 1688 852 1630T707 1571Q622 1571 563 1630T504 1778Q504 1859 564 1916T707 1974Q764 1974 810 1947T883
1875T911 1774ZM813 1773Q813 1821 782 1851T705 1882Q661 1882 628 1852T595 1773Q595 1729 628 1696T705 1662Q750 1662 781 1695T813 1773Z" />
<glyph unicode="&#xc6;" horiz-adv-x="1913" d="M1789 139V0H896V418H394L160 0H0L807 1446H1764L1763 1308H1073V799H1697V662H1073V139H1789ZM896 560V1328L458 560H896Z" />
<glyph unicode="&#xc7;" horiz-adv-x="1361" d="M715 1466Q865 1466 981 1403T1167 1236T1250 1010H1082Q1065 1097 1019 1169T895 1284T712 1327Q572 1327 477 1262T333 1064T284 724Q284 414 392 267T712 120Q818 120 895 164T1018 282T1082 443H1250Q1239 354
1201 271T1096 122T934 18T715 -20Q522 -20 388 67T182 321T111 726Q111 964 181 1129T387 1380T715 1466ZM894 -256Q894 -306 865 -339T788 -390T683 -408Q632 -408 588 -396T504 -359L533 -287Q557 -306 589 -319T665 -333Q722 -333 748 -313T775 -257Q775 -213
738 -192T618 -168Q609 -168 607 -165T607 -156L680 10H769L721 -111Q787 -115 824 -137T878 -191T894 -256Z" />
<glyph unicode="&#xc8;" horiz-adv-x="1234" d="M199 0V1446H1088V1306H355V800H1021V660H355V144L1110 143V0H199ZM503 1858H317L585 1567H709L503 1858Z" />
<glyph unicode="&#xc9;" horiz-adv-x="1234" d="M199 0V1446H1088V1306H355V800H1021V660H355V144L1110 143V0H199ZM787 1858H973L705 1567H581L787 1858Z" />
<glyph unicode="&#xca;" horiz-adv-x="1234" d="M199 0V1446H1088V1306H355V800H1021V660H355V144L1110 143V0H199ZM789 1567L647 1694L495 1567H345L592 1782H706L949 1567H789Z" />
<glyph unicode="&#xcb;" horiz-adv-x="1234" d="M199 0V1446H1088V1306H355V800H1021V660H355V144L1110 143V0H199ZM753 1637L754 1800H910L909 1637H753ZM385 1637L386 1800H542L541 1637H385Z" />
<glyph unicode="&#xcc;" horiz-adv-x="553" d="M199 1446H355V0H199V1446ZM133 1858H-53L215 1567H339L133 1858Z" />
<glyph unicode="&#xcd;" horiz-adv-x="553" d="M199 1446H355V0H199V1446ZM418 1858H604L336 1567H212L418 1858Z" />
<glyph unicode="&#xce;" horiz-adv-x="553" d="M199 1446H355V0H199V1446ZM419 1567L277 1694L125 1567H-25L222 1782H336L579 1567H419Z" />
<glyph unicode="&#xcf;" horiz-adv-x="553" d="M199 1446H355V0H199V1446ZM384 1637L385 1800H541L540 1637H384ZM16 1637L17 1800H173L172 1637H16Z" />
<glyph unicode="&#xd0;" horiz-adv-x="1391" d="M718 790V660H70V790H718ZM217 1446Q223 1446 254 1446T332 1445T430 1446T527 1444Q794 1441 959 1360T1202 1122T1280 733Q1280 489 1197 326T941 82T506 0H217V1446ZM379 1308V138H504Q698 138 834 195T1043
382T1115 728Q1115 948 1044 1074T839 1254T513 1308H379Z" />
<glyph unicode="&#xd1;" horiz-adv-x="1493" d="M1138 1446H1294V0H1155L355 1180V0H199V1446H345L1138 277V1446ZM1038 1697Q1013 1680 974 1662T873 1643Q820 1643 782 1655T707 1680T627 1693Q578 1693 549 1677T491 1639L460 1737Q492 1766 528 1786T619 1807Q666
1807 707 1794T789 1767T874 1753Q917 1753 947 1768T1007 1805L1038 1697Z" />
<glyph unicode="&#xd2;" horiz-adv-x="1453" d="M729 -20Q539 -20 401 66T187 318T111 720Q111 959 186 1125T401 1379T729 1466Q918 1466 1055 1379T1267 1126T1342 720Q1342 483 1268 318T1057 67T729 -20ZM729 120Q871 120 969 184T1119 381T1170 719Q1170
927 1118 1061T968 1261T729 1327Q589 1327 490 1261T337 1060T284 719Q284 513 337 381T489 184T729 120ZM586 1858H400L668 1567H792L586 1858Z" />
<glyph unicode="&#xd3;" horiz-adv-x="1453" d="M729 -20Q539 -20 401 66T187 318T111 720Q111 959 186 1125T401 1379T729 1466Q918 1466 1055 1379T1267 1126T1342 720Q1342 483 1268 318T1057 67T729 -20ZM729 120Q871 120 969 184T1119 381T1170 719Q1170
927 1118 1061T968 1261T729 1327Q589 1327 490 1261T337 1060T284 719Q284 513 337 381T489 184T729 120ZM870 1858H1056L788 1567H664L870 1858Z" />
<glyph unicode="&#xd4;" horiz-adv-x="1453" d="M729 -20Q539 -20 401 66T187 318T111 720Q111 959 186 1125T401 1379T729 1466Q918 1466 1055 1379T1267 1126T1342 720Q1342 483 1268 318T1057 67T729 -20ZM729 120Q871 120 969 184T1119 381T1170 719Q1170
927 1118 1061T968 1261T729 1327Q589 1327 490 1261T337 1060T284 719Q284 513 337 381T489 184T729 120ZM872 1567L730 1694L578 1567H428L675 1782H789L1032 1567H872Z" />
<glyph unicode="&#xd5;" horiz-adv-x="1453" d="M729 -20Q539 -20 401 66T187 318T111 720Q111 959 186 1125T401 1379T729 1466Q918 1466 1055 1379T1267 1126T1342 720Q1342 483 1268 318T1057 67T729 -20ZM729 120Q871 120 969 184T1119 381T1170 719Q1170
927 1118 1061T968 1261T729 1327Q589 1327 490 1261T337 1060T284 719Q284 513 337 381T489 184T729 120ZM1022 1697Q997 1680 958 1662T857 1643Q804 1643 766 1655T691 1680T611 1693Q562 1693 533 1677T475 1639L444 1737Q476 1766 512 1786T603 1807Q650 1807
691 1794T773 1767T858 1753Q901 1753 931 1768T991 1805L1022 1697Z" />
<glyph unicode="&#xd6;" horiz-adv-x="1453" d="M729 -20Q539 -20 401 66T187 318T111 720Q111 959 186 1125T401 1379T729 1466Q918 1466 1055 1379T1267 1126T1342 720Q1342 483 1268 318T1057 67T729 -20ZM729 120Q871 120 969 184T1119 381T1170 719Q1170
927 1118 1061T968 1261T729 1327Q589 1327 490 1261T337 1060T284 719Q284 513 337 381T489 184T729 120ZM836 1637L837 1800H993L992 1637H836ZM468 1637L469 1800H625L624 1637H468Z" />
<glyph unicode="&#xd7;" horiz-adv-x="1060" d="M934 413L844 323L125 1041L214 1129L934 413ZM216 323L127 413L844 1132L933 1044L216 323Z" />
<glyph unicode="&#xd8;" horiz-adv-x="1487" d="M152 -26L60 62L232 253Q180 342 153 458T126 717Q126 957 201 1124T414 1378T742 1466Q877 1466 985 1422T1172 1293L1333 1471L1425 1384L1249 1188Q1302 1099 1329 981T1356 720Q1356 483 1282 318T1070 67T741
-20Q606 -20 498 23T312 149L152 -26ZM744 119Q947 119 1050 253T1160 666Q1163 776 1151 870T1111 1047L422 266Q529 119 744 119ZM369 396L1060 1177Q1007 1254 928 1291T742 1328Q538 1328 431 1189T319 764Q317 656 329 565T369 396Z" />
<glyph unicode="&#xd9;" horiz-adv-x="1388" d="M1229 486Q1229 322 1175 209T1006 38T713 -20Q532 -20 419 39T252 217T199 508V1446H362V479Q362 299 451 209T713 119Q829 119 909 158T1030 278T1072 479V1446H1229V486ZM572 1858H386L654 1567H778L572 1858Z" />
<glyph unicode="&#xda;" horiz-adv-x="1388" d="M1229 486Q1229 322 1175 209T1006 38T713 -20Q532 -20 419 39T252 217T199 508V1446H362V479Q362 299 451 209T713 119Q829 119 909 158T1030 278T1072 479V1446H1229V486ZM856 1858H1042L774 1567H650L856 1858Z" />
<glyph unicode="&#xdb;" horiz-adv-x="1388" d="M1229 486Q1229 322 1175 209T1006 38T713 -20Q532 -20 419 39T252 217T199 508V1446H362V479Q362 299 451 209T713 119Q829 119 909 158T1030 278T1072 479V1446H1229V486ZM858 1567L716 1694L564 1567H414L661
1782H775L1018 1567H858Z" />
<glyph unicode="&#xdc;" horiz-adv-x="1388" d="M1229 486Q1229 322 1175 209T1006 38T713 -20Q532 -20 419 39T252 217T199 508V1446H362V479Q362 299 451 209T713 119Q829 119 909 158T1030 278T1072 479V1446H1229V486ZM822 1637L823 1800H979L978 1637H822ZM454
1637L455 1800H611L610 1637H454Z" />
<glyph unicode="&#xdd;" horiz-adv-x="1182" d="M1157 1446L671 617V0H516V619L25 1446H196L594 760L986 1446H1157ZM744 1861H930L662 1570H538L744 1861Z" />
<glyph unicode="&#xde;" horiz-adv-x="1285" d="M1229 752Q1229 606 1162 514T976 379T706 335H361V0H199V1446H361V1144H697Q853 1144 973 1103T1161 974T1229 752ZM1066 752Q1066 844 1018 899T886 980T695 1005H361V474H706Q808 474 889 501T1018 590T1066 752Z" />
<glyph unicode="&#xdf;" horiz-adv-x="1179" d="M598 1446Q720 1446 793 1408T900 1307T934 1174Q934 1098 903 1050T818 969T700 905Q633 868 605 847T577 786Q577 748 603 732T696 694Q751 673 815 647T936 581T1029 477T1066 319Q1066 208 1015 133T875 19T679
-20Q607 -20 531 -1T404 50L464 158Q507 133 553 115T666 96Q781 96 849 150T918 304Q918 378 882 422T787 493T661 543Q610 560 561 584T480 649T447 760Q447 835 490 883T622 981Q661 1004 698 1028T761 1086T786 1173Q786 1245 733 1287T582 1330Q464 1330 390
1259T316 1044V0H162L160 1018Q161 1112 190 1190T274 1326T411 1415T598 1446Z" />
<glyph unicode="&#xe0;" horiz-adv-x="1124" d="M443 -20Q342 -20 266 15T148 117T105 276Q105 448 222 531T603 621L803 627V713Q803 814 742 874T552 934Q456 934 386 890T296 747H154Q160 844 209 912T347 1017T560 1054Q688 1054 775 1017T908 905T953 720V0H819L808
199Q746 76 651 28T443 -20ZM487 97Q543 97 598 117T700 172T774 250T803 338V522L636 519Q505 517 422 493T298 420T257 290Q257 199 321 148T487 97ZM416 1446H230L498 1155H622L416 1446Z" />
<glyph unicode="&#xe1;" horiz-adv-x="1124" d="M443 -20Q342 -20 266 15T148 117T105 276Q105 448 222 531T603 621L803 627V713Q803 814 742 874T552 934Q456 934 386 890T296 747H154Q160 844 209 912T347 1017T560 1054Q688 1054 775 1017T908 905T953 720V0H819L808
199Q746 76 651 28T443 -20ZM487 97Q543 97 598 117T700 172T774 250T803 338V522L636 519Q505 517 422 493T298 420T257 290Q257 199 321 148T487 97ZM700 1446H886L618 1155H494L700 1446Z" />
<glyph unicode="&#xe2;" horiz-adv-x="1124" d="M443 -20Q342 -20 266 15T148 117T105 276Q105 448 222 531T603 621L803 627V713Q803 814 742 874T552 934Q456 934 386 890T296 747H154Q160 844 209 912T347 1017T560 1054Q688 1054 775 1017T908 905T953 720V0H819L808
199Q746 76 651 28T443 -20ZM487 97Q543 97 598 117T700 172T774 250T803 338V522L636 519Q505 517 422 493T298 420T257 290Q257 199 321 148T487 97ZM702 1155L560 1282L408 1155H258L505 1370H619L862 1155H702Z" />
<glyph unicode="&#xe3;" horiz-adv-x="1124" d="M443 -20Q342 -20 266 15T148 117T105 276Q105 448 222 531T603 621L803 627V713Q803 814 742 874T552 934Q456 934 386 890T296 747H154Q160 844 209 912T347 1017T560 1054Q688 1054 775 1017T908 905T953 720V0H819L808
199Q746 76 651 28T443 -20ZM487 97Q543 97 598 117T700 172T774 250T803 338V522L636 519Q505 517 422 493T298 420T257 290Q257 199 321 148T487 97ZM852 1285Q827 1268 788 1250T687 1231Q634 1231 596 1243T521 1268T441 1281Q392 1281 363 1265T305 1227L274
1325Q306 1354 342 1374T433 1395Q480 1395 521 1382T603 1355T688 1341Q731 1341 761 1356T821 1393L852 1285Z" />
<glyph unicode="&#xe4;" horiz-adv-x="1124" d="M443 -20Q342 -20 266 15T148 117T105 276Q105 448 222 531T603 621L803 627V713Q803 814 742 874T552 934Q456 934 386 890T296 747H154Q160 844 209 912T347 1017T560 1054Q688 1054 775 1017T908 905T953 720V0H819L808
199Q746 76 651 28T443 -20ZM487 97Q543 97 598 117T700 172T774 250T803 338V522L636 519Q505 517 422 493T298 420T257 290Q257 199 321 148T487 97ZM666 1225L667 1388H823L822 1225H666ZM298 1225L299 1388H455L454 1225H298Z" />
<glyph unicode="&#xe5;" horiz-adv-x="1124" d="M443 -20Q342 -20 266 15T148 117T105 276Q105 448 222 531T603 621L803 627V713Q803 814 742 874T552 934Q456 934 386 890T296 747H154Q160 844 209 912T347 1017T560 1054Q688 1054 775 1017T908 905T953 720V0H819L808
199Q746 76 651 28T443 -20ZM487 97Q543 97 598 117T700 172T774 250T803 338V522L636 519Q505 517 422 493T298 420T257 290Q257 199 321 148T487 97ZM765 1362Q765 1276 706 1218T561 1159Q476 1159 417 1218T358 1366Q358 1447 418 1504T561 1562Q618 1562 664
1535T737 1463T765 1362ZM667 1361Q667 1409 636 1439T559 1470Q515 1470 482 1440T449 1361Q449 1317 482 1284T559 1250Q604 1250 635 1283T667 1361Z" />
<glyph unicode="&#xe6;" horiz-adv-x="1820" d="M443 -20Q342 -20 266 15T148 117T105 276Q105 448 222 531T604 621L803 627V713Q803 819 734 877T552 934Q457 934 386 887T296 747H154Q160 832 209 902T347 1013T560 1054Q687 1054 775 1013T908 898T954 720L874
286Q867 194 806 125T649 18T443 -20ZM487 97Q583 97 653 141T763 249T803 375V522L636 519Q505 517 422 493T298 420T257 290Q257 199 321 148T487 97ZM961 481Q961 377 995 292T1100 156T1280 105Q1386 105 1461 154T1557 295H1707Q1688 191 1624 121T1471 16T1283
-20Q1140 -20 1032 42T863 223T802 507Q802 672 857 795T1017 986T1270 1054Q1412 1054 1511 993T1663 817T1715 545V481H961ZM962 592H1563Q1563 688 1531 765T1434 887T1268 932Q1163 932 1095 882T995 753T962 592Z" />
<glyph unicode="&#xe7;" horiz-adv-x="1079" d="M564 1054Q671 1054 758 1014T902 900T975 720H832Q822 778 787 824T696 898T565 925Q424 925 336 825T247 515Q247 328 327 216T567 103Q641 103 697 130T789 204T833 307H974Q959 205 901 132T757 19T564 -20Q426
-20 320 40T155 219T95 514Q95 675 149 796T307 986T564 1054ZM740 -256Q740 -306 711 -339T634 -390T529 -408Q478 -408 434 -396T350 -359L379 -287Q403 -306 435 -319T511 -333Q568 -333 594 -313T621 -257Q621 -213 584 -192T464 -168Q455 -168 453 -165T453
-156L526 10H615L567 -111Q633 -115 670 -137T724 -191T740 -256Z" />
<glyph unicode="&#xe8;" horiz-adv-x="1123" d="M264 481Q264 377 298 292T403 156T583 105Q688 105 764 154T859 295H1009Q990 191 927 121T774 16T585 -20Q443 -20 335 42T166 223T105 507Q105 672 160 795T319 986T572 1054Q715 1054 814 993T965 817T1017
545V481H264ZM265 592H865Q865 688 833 765T736 887T571 932Q465 932 398 882T297 753T265 592ZM428 1446H242L510 1155H634L428 1446Z" />
<glyph unicode="&#xe9;" horiz-adv-x="1123" d="M264 481Q264 377 298 292T403 156T583 105Q688 105 764 154T859 295H1009Q990 191 927 121T774 16T585 -20Q443 -20 335 42T166 223T105 507Q105 672 160 795T319 986T572 1054Q715 1054 814 993T965 817T1017
545V481H264ZM265 592H865Q865 688 833 765T736 887T571 932Q465 932 398 882T297 753T265 592ZM713 1446H899L631 1155H507L713 1446Z" />
<glyph unicode="&#xea;" horiz-adv-x="1123" d="M264 481Q264 377 298 292T403 156T583 105Q688 105 764 154T859 295H1009Q990 191 927 121T774 16T585 -20Q443 -20 335 42T166 223T105 507Q105 672 160 795T319 986T572 1054Q715 1054 814 993T965 817T1017
545V481H264ZM265 592H865Q865 688 833 765T736 887T571 932Q465 932 398 882T297 753T265 592ZM714 1155L572 1282L420 1155H270L517 1370H631L874 1155H714Z" />
<glyph unicode="&#xeb;" horiz-adv-x="1123" d="M264 481Q264 377 298 292T403 156T583 105Q688 105 764 154T859 295H1009Q990 191 927 121T774 16T585 -20Q443 -20 335 42T166 223T105 507Q105 672 160 795T319 986T572 1054Q715 1054 814 993T965 817T1017
545V481H264ZM265 592H865Q865 688 833 765T736 887T571 932Q465 932 398 882T297 753T265 592ZM678 1225L679 1388H835L834 1225H678ZM310 1225L311 1388H467L466 1225H310Z" />
<glyph unicode="&#xec;" horiz-adv-x="503" d="M327 1034V0H176V1034H327ZM364 1446H178L446 1155H570L364 1446Z" />
<glyph unicode="&#xed;" horiz-adv-x="503" d="M327 1034V0H176V1034H327ZM331 1446H511L310 1155L190 1156L331 1446Z" />
<glyph unicode="&#xee;" horiz-adv-x="503" d="M327 1034V0H176V1034H327ZM650 1155L508 1282L356 1155H206L453 1370H567L810 1155H650Z" />
<glyph unicode="&#xef;" horiz-adv-x="585" d="M368 1034V0H217V1034H368ZM398 1480L399 1643H555L554 1480H398ZM30 1480L31 1643H187L186 1480H30Z" />
<glyph unicode="&#xf0;" horiz-adv-x="1160" d="M583 -20Q435 -20 326 50T156 240T95 509Q95 632 130 730T230 899T381 1007T572 1045Q673 1045 743 1019T860 947T933 846Q911 981 860 1080T741 1249T603 1368T468 1451L651 1480Q779 1408 861 1315T988 1105T1050
844T1064 526Q1062 368 1003 245T837 51T583 -20ZM579 106Q685 106 756 164T862 316T898 517Q898 645 864 737T760 878T579 928Q473 928 400 875T289 728T251 517Q251 411 288 317T399 165T579 106ZM422 1102V1227L1022 1452V1328L422 1102Z" />
<glyph unicode="&#xf1;" horiz-adv-x="1145" d="M160 0V1034H310V883Q336 928 381 966T492 1027T640 1050Q740 1050 822 1011T954 888T1003 675V0H847V661Q847 793 780 856T603 919Q528 919 462 895T356 822T316 699V0H160ZM889 1285Q864 1268 825 1250T724 1231Q671
1231 633 1243T558 1268T478 1281Q429 1281 400 1265T342 1227L311 1325Q343 1354 379 1374T470 1395Q517 1395 558 1382T640 1355T725 1341Q768 1341 798 1356T858 1393L889 1285Z" />
<glyph unicode="&#xf2;" horiz-adv-x="1120" d="M562 -20Q422 -20 317 40T153 220T95 513Q95 675 148 797T306 986T563 1054Q703 1054 806 993T967 811T1025 513Q1025 355 973 235T819 48T562 -20ZM563 106Q660 106 728 154T833 294T870 517Q870 635 838 728T738
874T563 928Q464 928 395 881T288 741T251 517Q251 399 283 307T385 160T563 106ZM417 1446H231L499 1155H623L417 1446Z" />
<glyph unicode="&#xf3;" horiz-adv-x="1120" d="M562 -20Q422 -20 317 40T153 220T95 513Q95 675 148 797T306 986T563 1054Q703 1054 806 993T967 811T1025 513Q1025 355 973 235T819 48T562 -20ZM563 106Q660 106 728 154T833 294T870 517Q870 635 838 728T738
874T563 928Q464 928 395 881T288 741T251 517Q251 399 283 307T385 160T563 106ZM701 1446H887L619 1155H495L701 1446Z" />
<glyph unicode="&#xf4;" horiz-adv-x="1120" d="M562 -20Q422 -20 317 40T153 220T95 513Q95 675 148 797T306 986T563 1054Q703 1054 806 993T967 811T1025 513Q1025 355 973 235T819 48T562 -20ZM563 106Q660 106 728 154T833 294T870 517Q870 635 838 728T738
874T563 928Q464 928 395 881T288 741T251 517Q251 399 283 307T385 160T563 106ZM703 1155L561 1282L409 1155H259L506 1370H620L863 1155H703Z" />
<glyph unicode="&#xf5;" horiz-adv-x="1120" d="M562 -20Q422 -20 317 40T153 220T95 513Q95 675 148 797T306 986T563 1054Q703 1054 806 993T967 811T1025 513Q1025 355 973 235T819 48T562 -20ZM563 106Q660 106 728 154T833 294T870 517Q870 635 838 728T738
874T563 928Q464 928 395 881T288 741T251 517Q251 399 283 307T385 160T563 106ZM853 1285Q828 1268 789 1250T688 1231Q635 1231 597 1243T522 1268T442 1281Q393 1281 364 1265T306 1227L275 1325Q307 1354 343 1374T434 1395Q481 1395 522 1382T604 1355T689
1341Q732 1341 762 1356T822 1393L853 1285Z" />
<glyph unicode="&#xf6;" horiz-adv-x="1120" d="M562 -20Q422 -20 317 40T153 220T95 513Q95 675 148 797T306 986T563 1054Q703 1054 806 993T967 811T1025 513Q1025 355 973 235T819 48T562 -20ZM563 106Q660 106 728 154T833 294T870 517Q870 635 838 728T738
874T563 928Q464 928 395 881T288 741T251 517Q251 399 283 307T385 160T563 106ZM667 1225L668 1388H824L823 1225H667ZM299 1225L300 1388H456L455 1225H299Z" />
<glyph unicode="&#xf7;" horiz-adv-x="1091" d="M653 489V285H441V489H653ZM966 790V665L125 664V788L966 790ZM653 1170V966H441V1170H653Z" />
<glyph unicode="&#xf8;" horiz-adv-x="1158" d="M1115 968L107 -10L38 63L1046 1041L1115 968ZM574 -20Q433 -20 328 40T165 220T107 513Q107 675 160 797T317 986T574 1054Q714 1054 818 993T979 811T1037 513Q1037 355 985 235T830 48T574 -20ZM574 106Q671
106 740 154T845 294T881 517Q881 635 850 728T750 874T574 928Q476 928 406 881T300 741T263 517Q263 399 295 307T396 160T574 106Z" />
<glyph unicode="&#xf9;" horiz-adv-x="1136" d="M540 -20Q457 -19 385 3T259 70T174 181T143 336V1034H299V350Q299 241 365 174T568 106Q690 106 764 169T838 362V1034H993V0H867L851 196Q833 122 789 74T681 3T540 -20ZM427 1446H241L509 1155H633L427 1446Z" />
<glyph unicode="&#xfa;" horiz-adv-x="1136" d="M540 -20Q457 -19 385 3T259 70T174 181T143 336V1034H299V350Q299 241 365 174T568 106Q690 106 764 169T838 362V1034H993V0H867L851 196Q833 122 789 74T681 3T540 -20ZM712 1446H898L630 1155H506L712 1446Z" />
<glyph unicode="&#xfb;" horiz-adv-x="1136" d="M540 -20Q457 -19 385 3T259 70T174 181T143 336V1034H299V350Q299 241 365 174T568 106Q690 106 764 169T838 362V1034H993V0H867L851 196Q833 122 789 74T681 3T540 -20ZM713 1155L571 1282L419 1155H269L516
1370H630L873 1155H713Z" />
<glyph unicode="&#xfc;" horiz-adv-x="1136" d="M540 -20Q457 -19 385 3T259 70T174 181T143 336V1034H299V350Q299 241 365 174T568 106Q690 106 764 169T838 362V1034H993V0H867L851 196Q833 122 789 74T681 3T540 -20ZM677 1225L678 1388H834L833 1225H677ZM309
1225L310 1388H466L465 1225H309Z" />
<glyph unicode="&#xfd;" horiz-adv-x="1052" d="M246 -330Q159 -330 128 -319T97 -307V-205L203 -206Q258 -208 295 -198T356 -171T392 -132T415 -89L456 20L52 1034H210L531 202L848 1034H1001L561 -97Q524 -187 478 -237T373 -309T246 -330ZM671 1446H857L589
1155H465L671 1446Z" />
<glyph unicode="&#xfe;" horiz-adv-x="1169" d="M313 1446V889Q336 914 375 953T480 1023T644 1054Q765 1054 862 997T1016 824T1074 532Q1074 358 1018 235T860 46T623 -20Q532 -20 463 9T345 79Q328 94 322 91T316 66V-322H160V1446H313ZM316 225Q375 166 440
131T583 95Q680 95 754 144T871 290T914 529Q914 674 870 764T754 896T594 938Q512 938 449 902T351 814T316 710V225Z" />
<glyph unicode="&#xff;" horiz-adv-x="1052" d="M246 -330Q159 -330 128 -319T97 -307V-205L203 -206Q258 -208 295 -198T356 -171T392 -132T415 -89L456 20L52 1034H210L531 202L848 1034H1001L561 -97Q524 -187 478 -237T373 -309T246 -330ZM637 1225L638 1388H794L793
1225H637ZM269 1225L270 1388H426L425 1225H269Z" />
<glyph unicode="&#x2013;" horiz-adv-x="1090" d="M966 567V440L125 439V566L966 567Z" />
<glyph unicode="&#x2014;" horiz-adv-x="2217" d="M1843 567V440L374 439V566L1843 567Z" />
<glyph unicode="&#x2018;" horiz-adv-x="466" d="M356 1510L246 1269L328 1265V1063H115V1239L276 1510H356Z" />
<glyph unicode="&#x2019;" horiz-adv-x="446" d="M100 999L210 1240L128 1244V1446H341V1270L180 999H100Z" />
<glyph unicode="&#x201a;" horiz-adv-x="464" d="M85 -242L195 -2L113 2V206H326V29L165 -242H85Z" />
<glyph unicode="&#x201c;" horiz-adv-x="806" d="M454 999V1177L615 1446H695L584 1206L667 1203V999H454ZM115 999V1177L277 1446H357L246 1206L328 1203V999H115Z" />
<glyph unicode="&#x201d;" horiz-adv-x="784" d="M438 999L549 1240L467 1244V1446H679V1270L518 999H438ZM100 999L210 1240L128 1244V1446H341V1270L180 999H100Z" />
<glyph unicode="&#x201e;" horiz-adv-x="811" d="M432 -242L542 -2L460 2V206H673V29L512 -242H432ZM85 -242L195 -2L113 2V206H326V29L165 -242H85Z" />
<glyph unicode="&#x2022;" horiz-adv-x="613" d="M303 554Q253 554 212 578T147 644T123 736Q123 786 147 827T212 892T303 916Q353 916 394 892T459 827T483 736Q483 686 459 645T394 579T303 554Z" />
<glyph unicode="&#x2039;" horiz-adv-x="539" d="M225 502L434 144H343L75 502L344 877H437L225 502Z" />
<glyph unicode="&#x203a;" horiz-adv-x="538" d="M310 502L98 877H189L458 502L190 144H101L310 502Z" />
</font>
</defs>
</svg>
