<?xml version="1.0" standalone="no"?>
<!DOCTYPE svg PUBLIC "-//W3C//DTD SVG 20010904//EN"
 "http://www.w3.org/TR/2001/REC-SVG-20010904/DTD/svg10.dtd">
<svg version="1.0" xmlns="http://www.w3.org/2000/svg"
 width="2400.000000pt" height="2400.000000pt" viewBox="0 0 2400.000000 2400.000000"
 preserveAspectRatio="xMidYMid meet">
<metadata>
Created by potrace 1.11, written by Peter Selinger 2001-2013
</metadata>
<g transform="translate(0.000000,2400.000000) scale(0.100000,-0.100000)"
fill="#000000" stroke="none">
<path d="M11430 23599 c-3403 -168 -6531 -1796 -8631 -4494 -180 -231 -292
-387 -484 -675 -1046 -1564 -1693 -3356 -1884 -5225 -70 -682 -80 -1461 -26
-2135 185 -2306 1049 -4490 2489 -6295 1206 -1511 2755 -2692 4523 -3450 1838
-789 3880 -1088 5888 -864 1783 198 3499 810 5004 1781 1947 1258 3486 3080
4391 5198 477 1116 778 2313 885 3515 56 629 59 1356 10 1975 -192 2394 -1117
4657 -2657 6501 -406 487 -929 1014 -1413 1424 -1862 1578 -4165 2529 -6590
2720 -441 34 -1081 45 -1505 24z m-140 -700 c0 -7 11 -9 29 -6 l28 6 16 -122
c35 -260 40 -318 31 -326 -5 -5 -30 -11 -56 -14 -36 -3 -48 -1 -48 9 0 33 -55
147 -91 187 -52 60 -118 87 -230 94 -72 5 -89 3 -89 -8 1 -61 131 -1090 140
-1111 15 -32 42 -40 103 -32 28 4 47 2 51 -5 4 -6 20 -11 37 -11 26 0 29 -3
29 -34 0 -19 2 -40 5 -48 4 -11 -77 -23 -407 -62 -227 -26 -415 -50 -417 -52
-3 -2 -13 22 -22 53 -10 32 -15 60 -11 64 4 3 36 13 72 23 75 20 107 46 116
93 5 26 -94 950 -112 1051 -5 28 -23 28 -107 2 -77 -24 -154 -87 -186 -153
-11 -23 -26 -77 -32 -120 -6 -43 -17 -80 -23 -82 -6 -2 -30 -6 -53 -8 -41 -5
-43 -4 -43 22 0 15 -4 31 -9 37 -10 9 -56 403 -48 410 10 10 466 77 677 99
470 51 650 63 650 44z m2420 -109 c174 -25 391 -115 507 -209 125 -102 215
-247 249 -398 24 -107 15 -280 -19 -385 -58 -182 -187 -336 -347 -416 -268
-134 -602 -116 -885 46 -33 19 -101 76 -150 126 -102 102 -156 196 -196 341
-30 107 -30 267 -1 376 73 272 283 461 569 513 93 17 184 19 273 6z m-3924
-71 c3 -6 17 -9 30 -6 21 4 25 -1 37 -42 l13 -46 -60 -30 c-67 -33 -89 -64
-80 -110 4 -16 75 -284 160 -595 84 -311 156 -577 159 -591 6 -24 3 -27 -40
-38 -38 -10 -51 -9 -69 2 -624 402 -1168 748 -1171 746 -7 -7 194 -734 215
-778 l21 -44 74 5 c41 3 75 1 75 -4 0 -4 13 -8 28 -8 26 0 30 -5 39 -46 8 -33
8 -47 -1 -49 -6 -3 -115 -41 -242 -85 -127 -44 -234 -80 -237 -80 -3 0 -10 12
-15 28 -6 15 -17 44 -26 64 l-16 36 46 27 c55 33 84 77 84 130 -1 22 -56 242
-123 489 l-123 450 -69 38 c-50 27 -80 38 -104 36 -34 -3 -35 -1 -54 55 -10
32 -17 59 -16 61 19 13 456 122 464 115 5 -5 14 -9 21 -9 6 0 218 -134 470
-299 253 -164 460 -298 461 -297 5 4 -161 594 -172 613 -21 31 -77 46 -143 38
-31 -4 -59 -8 -60 -9 -5 -2 -45 115 -41 118 4 3 435 122 451 125 4 0 10 -4 14
-10z m5579 -368 c336 -110 616 -205 622 -209 10 -6 -5 -61 -58 -221 -60 -178
-74 -211 -88 -206 -9 4 -28 9 -43 12 -23 4 -28 11 -28 34 0 16 -4 29 -10 29
-6 0 -10 37 -10 90 0 53 -6 104 -13 123 -30 70 -142 143 -306 198 -93 32 -124
35 -138 17 -10 -12 -153 -435 -153 -451 0 -13 130 -7 168 9 49 20 95 66 138
136 31 51 37 56 57 48 65 -25 97 -41 97 -48 0 -7 -221 -674 -225 -679 -1 -2
-21 3 -46 10 -37 11 -44 17 -44 37 0 14 -5 28 -11 32 -8 5 -8 26 -2 69 12 77
3 139 -24 174 -22 29 -114 85 -139 85 -11 0 -34 -57 -87 -223 -40 -122 -72
-232 -72 -244 0 -37 38 -70 120 -104 87 -36 87 -34 61 -103 l-10 -24 -401 131
-401 132 5 28 c3 15 1 27 -4 27 -14 0 -13 37 1 46 6 3 37 1 68 -6 70 -15 121
2 144 47 8 15 88 252 177 525 186 566 179 516 73 560 -47 19 -53 25 -49 44 4
13 1 24 -6 26 -7 3 -9 14 -4 32 4 16 12 26 19 23 7 -2 287 -95 622 -206z
m-7370 -171 c4 -6 13 -7 24 -1 15 9 28 -15 107 -191 49 -111 89 -205 89 -210
0 -5 -19 -17 -42 -28 l-42 -19 -36 49 c-105 142 -224 174 -416 110 -117 -39
-233 -99 -237 -123 -5 -23 169 -417 184 -417 6 0 32 14 58 32 97 64 135 154
116 273 -6 35 -13 70 -15 78 -7 18 45 43 55 27 4 -7 17 -10 30 -8 20 3 35 -26
170 -327 l148 -330 -47 -22 c-42 -21 -47 -21 -56 -7 -62 102 -137 168 -203
180 -38 7 -141 -10 -179 -29 -22 -12 -22 -13 72 -222 51 -116 99 -218 105
-228 15 -26 52 -16 178 45 211 102 314 242 342 461 5 44 11 81 12 82 8 6 47
25 52 25 3 0 6 -7 6 -15 0 -12 5 -13 26 -4 15 5 28 8 29 7 11 -15 96 -460 89
-467 -5 -4 -108 -50 -229 -102 -430 -183 -980 -468 -1428 -738 -93 -55 -171
-101 -176 -101 -14 0 -73 68 -67 78 3 6 1 14 -4 17 -7 4 12 31 45 66 49 52 57
64 53 92 -2 22 -86 152 -258 405 -140 204 -256 369 -257 365 -2 -5 44 -278
102 -608 62 -356 101 -603 95 -610 -5 -5 -22 -18 -38 -27 l-29 -17 -517 306
c-284 168 -518 304 -520 302 -6 -6 450 -671 492 -718 36 -39 43 -42 73 -36 19
4 58 18 88 31 34 15 58 21 64 15 5 -5 15 -7 21 -5 6 2 28 -13 48 -33 l37 -38
-221 -174 -221 -174 -28 32 c-41 49 -43 80 -9 116 69 75 68 117 -6 227 -383
562 -546 797 -559 802 -8 3 -48 -13 -89 -34 -42 -22 -77 -40 -80 -40 -9 0 -51
75 -53 96 -3 17 39 54 211 188 237 184 228 180 306 130 106 -68 803 -475 806
-471 3 3 -31 224 -75 492 -45 268 -81 495 -81 504 0 12 70 60 223 154 242 148
252 153 261 139 3 -6 14 -8 24 -6 11 3 24 -7 40 -31 12 -19 22 -37 22 -40 0
-2 -25 -23 -55 -46 -60 -45 -72 -70 -56 -112 15 -39 547 -815 589 -859 40 -42
63 -46 120 -23 20 9 46 14 58 11 25 -7 52 18 34 29 -7 4 9 21 40 42 62 41 87
90 73 138 -5 16 -101 234 -213 483 -227 507 -217 492 -306 472 -25 -6 -59 -17
-74 -25 l-28 -14 -27 60 c-15 33 -25 62 -23 64 8 9 582 269 815 371 144 62
277 120 295 128 40 17 65 19 73 6z m9727 -918 c180 -121 358 -246 395 -278
187 -164 285 -355 286 -554 0 -110 -15 -174 -68 -285 -100 -207 -271 -346
-478 -389 -132 -28 -258 -16 -407 36 -131 46 -161 64 -518 301 -238 158 -331
225 -327 235 3 8 0 21 -6 28 -9 11 -8 18 1 29 15 19 58 14 92 -9 28 -20 70
-21 106 -2 36 19 611 873 619 919 4 30 0 38 -41 74 -30 26 -44 46 -40 56 3 8
1 18 -5 22 -8 4 -8 12 0 26 7 15 18 19 37 15 15 -2 174 -103 354 -224z m-5372
-362 c1255 -64 2432 -371 3533 -922 2753 -1376 4604 -4073 4881 -7113 49 -535
49 -1135 0 -1655 -140 -1495 -648 -2907 -1492 -4150 -1448 -2134 -3758 -3535
-6322 -3835 -544 -63 -1286 -73 -1825 -25 -2093 190 -4015 1090 -5500 2575
-982 982 -1717 2173 -2149 3480 -298 905 -446 1827 -446 2785 0 2155 768 4199
2194 5836 167 192 639 664 829 829 1533 1333 3397 2089 5407 2194 218 12 670
12 890 1z m6448 -388 c27 8 464 -377 760 -667 l226 -222 -153 -167 -154 -167
-34 32 c-18 18 -33 41 -33 50 0 10 -4 20 -9 23 -5 3 7 38 26 77 27 53 37 87
41 140 7 95 -22 151 -136 265 -105 105 -154 140 -177 126 -21 -11 -325 -343
-325 -354 0 -14 82 -68 120 -79 50 -15 125 7 208 60 37 24 64 36 68 30 3 -6
13 -8 21 -5 9 4 29 -8 51 -29 l36 -35 -25 -27 c-14 -16 -124 -135 -243 -265
-120 -131 -222 -238 -226 -238 -5 0 -24 13 -42 29 -44 38 -43 66 5 162 62 123
53 201 -31 282 l-29 28 -162 -176 c-89 -97 -167 -187 -173 -201 -10 -21 -7
-30 18 -67 68 -97 233 -207 339 -226 64 -12 202 2 279 29 43 15 62 17 72 9 7
-6 18 -8 24 -4 5 3 28 -11 51 -32 l40 -39 -188 -134 c-103 -74 -193 -135 -200
-135 -6 0 -226 196 -488 435 -262 239 -483 439 -491 443 -9 5 -12 16 -9 27 3
10 1 21 -5 25 -8 5 -6 13 6 26 22 24 54 16 112 -28 51 -39 67 -41 109 -10 42
30 709 760 728 797 22 43 19 56 -26 105 -23 25 -39 48 -36 52 4 3 2 12 -4 20
-16 19 18 58 36 43 7 -6 17 -9 23 -8z m-14003 -232 c4 -6 11 -7 17 -4 10 7
180 -155 270 -259 l51 -58 -34 -35 c-18 -18 -36 -34 -40 -34 -4 0 -30 16 -59
35 -66 44 -148 69 -211 63 -55 -6 -136 -43 -196 -92 l-43 -34 386 -396 c329
-338 389 -396 414 -396 18 0 50 17 90 46 43 33 64 44 72 36 6 -6 16 -8 22 -6
6 2 26 -11 44 -29 l33 -34 -302 -292 -302 -292 -34 33 c-18 18 -31 38 -29 44
2 6 0 16 -6 22 -6 6 5 29 35 68 76 100 79 92 -85 262 -417 433 -623 642 -630
642 -15 0 -67 -65 -100 -125 -29 -53 -33 -69 -33 -135 0 -76 19 -131 72 -213
l18 -27 -38 -38 -38 -37 -71 75 c-40 41 -110 114 -156 162 -47 49 -81 92 -77
98 4 6 2 17 -4 24 -9 10 96 117 467 474 262 254 480 462 484 462 4 0 10 -5 13
-10z m15170 -870 c3 -5 12 -7 19 -4 14 5 235 -229 397 -421 89 -106 408 -526
429 -565 9 -17 -11 -37 -162 -160 l-171 -141 -34 33 c-18 18 -32 37 -29 43 2
5 0 17 -5 26 -6 11 0 27 17 50 85 112 106 227 59 328 -29 63 -107 170 -159
220 -31 30 -40 34 -61 25 -13 -5 -104 -74 -200 -153 l-176 -144 33 -34 c18
-19 46 -42 62 -50 43 -22 127 -12 210 26 49 22 72 28 81 21 7 -6 19 -8 26 -5
8 3 25 -11 42 -35 l27 -39 -280 -231 -280 -230 -33 37 c-17 20 -31 42 -29 49
1 7 -2 15 -8 19 -6 4 8 29 34 63 24 31 51 71 60 88 36 72 29 161 -16 216 l-23
28 -165 -135 c-194 -160 -220 -186 -220 -223 0 -28 41 -106 83 -156 l24 -29
-35 -31 c-24 -21 -38 -27 -47 -20 -34 23 -529 639 -531 660 -6 56 57 55 120
-4 52 -48 74 -51 120 -19 97 67 808 662 821 687 21 40 19 49 -14 102 -35 56
-41 79 -22 101 15 19 27 21 36 7z m-16077 -459 c48 -23 87 -50 118 -83 98
-105 114 -214 58 -406 l-7 -23 344 3 c294 3 349 5 376 19 22 12 35 13 42 6 7
-7 14 -7 23 0 10 8 20 0 40 -33 l27 -44 -155 -177 -154 -176 -123 2 c-67 1
-241 6 -387 11 -253 9 -302 6 -274 -18 11 -10 208 -163 277 -215 67 -51 92
-49 160 13 35 31 58 46 62 40 4 -6 13 -9 20 -6 8 3 30 -9 50 -27 l36 -32 -233
-300 -233 -300 -173 -310 c-95 -170 -176 -316 -180 -323 -7 -9 -18 -7 -50 10
-32 18 -40 27 -36 42 3 10 1 22 -6 26 -9 6 -6 22 14 65 14 32 26 61 26 66 0
14 -72 29 -170 35 l-95 6 -107 -195 c-59 -106 -108 -199 -110 -204 -5 -17 132
-183 152 -183 18 0 79 61 100 99 8 17 17 20 38 14 29 -7 92 -42 92 -50 0 -5
-227 -419 -236 -431 -1 -2 -21 6 -44 18 -26 13 -40 27 -39 38 1 9 0 22 -1 27
-2 6 -3 39 -4 75 -1 52 -6 72 -26 100 -13 19 -197 265 -408 545 -212 281 -388
523 -393 538 -5 17 -4 38 3 53 9 19 19 24 51 24 22 0 297 -18 611 -41 664 -47
777 -51 823 -26 35 19 108 131 119 183 5 27 1 35 -43 71 -119 98 -751 582
-780 597 -55 28 -79 21 -137 -37 l-53 -53 -34 23 c-19 13 -34 31 -34 41 -1 9
-4 23 -9 30 -10 17 483 650 575 737 185 174 329 214 497 136z m17038 -710 c8
6 16 10 17 8 40 -52 686 -1134 680 -1139 -10 -10 -372 -230 -377 -230 -6 0
-48 73 -50 87 -1 7 -5 15 -9 19 -3 4 16 32 42 63 68 78 95 133 99 207 5 81
-15 147 -79 259 -58 103 -85 135 -110 135 -19 0 -419 -237 -419 -249 0 -13 71
-95 103 -118 28 -22 39 -24 97 -20 36 3 89 14 117 25 41 15 53 17 57 7 3 -8
13 -11 24 -9 13 4 26 -6 46 -36 15 -23 26 -43 24 -45 -2 -2 -142 -87 -312
-191 -346 -210 -315 -201 -357 -107 l-19 42 56 53 c90 84 121 172 94 268 -23
84 -15 86 -239 -50 -111 -67 -208 -129 -216 -137 -27 -26 -17 -75 30 -156 25
-43 75 -108 110 -146 107 -113 225 -160 373 -147 45 3 72 2 72 -4 0 -6 11 -10
25 -10 18 0 31 -11 51 -45 14 -25 25 -47 23 -49 -2 -1 -103 -37 -224 -79 -196
-68 -221 -75 -232 -61 -44 59 -688 1131 -690 1149 -4 27 31 45 50 26 6 -6 15
-7 22 -1 7 6 25 -9 53 -46 32 -41 48 -54 68 -54 26 0 872 504 935 557 38 33
46 79 21 129 -33 66 -35 90 -9 101 17 8 24 7 30 -4 7 -11 12 -12 23 -2z m844
-1411 c17 9 21 6 33 -22 7 -18 51 -124 96 -235 l84 -202 -230 -473 c-127 -260
-229 -475 -227 -477 2 -2 56 19 121 47 65 28 179 76 253 106 168 69 200 98
200 178 0 29 -4 68 -9 86 -9 30 -7 34 15 44 20 9 27 9 33 -1 5 -8 17 -11 28
-7 17 5 31 -21 119 -236 l100 -243 -39 -17 c-52 -24 -54 -23 -73 15 -29 58
-64 87 -103 86 -23 0 -242 -86 -611 -238 -457 -189 -577 -236 -586 -225 -6 7
-19 37 -29 66 l-18 54 291 609 c161 335 291 610 289 611 -3 3 -657 -269 -695
-289 -18 -10 -40 -33 -49 -52 -16 -33 -13 -73 13 -162 5 -18 -1 -24 -38 -41
-31 -14 -45 -16 -50 -7 -20 33 -208 497 -208 514 0 22 27 36 44 22 7 -6 21 -8
32 -5 16 4 24 -3 38 -34 27 -59 63 -94 89 -87 20 6 873 355 924 378 27 12 83
148 83 202 0 28 5 38 23 44 15 6 24 4 30 -5 6 -11 13 -12 27 -4z m-19375 -245
c92 -37 147 -77 189 -139 47 -70 66 -141 66 -251 0 -106 -19 -190 -79 -348
-23 -59 -41 -111 -41 -116 0 -12 350 -151 378 -151 28 0 75 42 107 95 14 25
29 45 33 45 13 0 112 -44 112 -49 0 -8 -289 -713 -294 -719 -2 -2 -22 2 -45 9
-35 10 -41 16 -41 40 0 15 -4 29 -10 31 -6 2 -4 25 4 60 15 67 11 76 -49 107
-116 58 -911 372 -945 374 -46 1 -76 -22 -111 -88 l-23 -43 -44 15 c-36 13
-43 19 -38 35 2 11 0 28 -5 37 -8 12 24 100 134 366 154 375 179 430 237 515
38 56 113 132 162 164 80 52 189 56 303 11z m-750 -1430 c99 -25 189 -50 200
-55 11 -5 30 -11 41 -15 21 -5 21 -8 10 -53 l-12 -47 -47 3 c-56 4 -149 -14
-198 -39 -81 -41 -148 -158 -193 -336 -32 -125 -32 -141 -3 -153 35 -15 429
-111 434 -106 11 11 23 86 23 148 0 61 -3 71 -31 103 -17 19 -65 51 -106 72
-66 33 -74 39 -68 60 3 13 1 23 -5 23 -11 0 -13 29 -5 52 4 11 73 -3 328 -69
391 -100 407 -104 407 -118 0 -5 -5 -27 -11 -47 l-10 -38 -97 0 c-114 0 -162
-17 -209 -75 -27 -32 -79 -143 -71 -151 8 -7 411 -104 435 -104 16 0 38 7 49
15 54 37 99 224 92 376 -6 128 -40 200 -139 299 -38 38 -69 76 -69 84 0 8 -5
18 -11 21 -9 6 -4 62 7 74 3 3 438 -204 453 -215 2 -2 -70 -296 -159 -654
-120 -481 -166 -650 -176 -646 -7 3 -29 8 -49 12 -34 6 -36 8 -30 35 4 19 3
29 -5 29 -9 0 -10 17 -5 64 6 61 5 66 -17 80 -27 18 -985 257 -1035 259 -43 1
-78 -33 -99 -97 -9 -28 -19 -54 -23 -58 -3 -4 -27 -2 -52 4 -41 10 -45 13 -41
35 3 14 0 28 -6 32 -8 5 183 802 289 1204 5 20 15 37 22 37 6 0 93 -20 192
-45z m20630 -92 c38 -14 86 -36 106 -49 86 -54 160 -157 204 -285 26 -76 29
-100 33 -249 4 -179 9 -196 60 -202 22 -3 28 -11 38 -53 7 -27 12 -50 11 -51
-2 -1 -444 -114 -460 -117 -5 -1 -18 27 -30 61 l-22 64 30 21 c80 57 157 143
193 216 31 63 38 87 41 154 5 123 -25 193 -101 233 -55 28 -140 11 -185 -37
-35 -38 -51 -96 -99 -364 -50 -274 -70 -334 -143 -417 -87 -98 -195 -143 -331
-136 -74 3 -98 9 -156 38 -140 68 -245 216 -310 435 -23 76 -27 112 -29 232
-2 77 -6 146 -9 152 -4 6 -18 11 -30 11 -18 0 -27 9 -39 43 -24 64 -29 87 -21
87 4 0 113 27 242 61 173 44 237 57 242 48 5 -7 18 -9 33 -5 21 5 25 2 30 -23
3 -16 9 -40 12 -53 6 -22 -1 -29 -61 -64 -90 -52 -176 -139 -215 -216 -64
-126 -46 -318 39 -407 45 -48 79 -57 144 -42 112 25 146 82 184 298 53 306 81
399 149 499 66 96 164 143 300 144 63 0 95 -6 150 -27z m435 -1174 c0 -7 11
-9 28 -6 l28 6 74 -660 c40 -363 71 -661 69 -663 -2 -1 -98 -13 -213 -25 -115
-13 -215 -25 -223 -28 -8 -3 -13 3 -13 17 0 12 -4 29 -9 38 -4 9 -11 29 -14
43 -6 24 -2 28 62 53 88 34 152 90 188 164 27 55 28 62 28 217 0 169 -6 209
-29 218 -8 3 -111 -5 -228 -18 -117 -14 -221 -25 -232 -25 -16 0 -18 -5 -13
-45 9 -64 45 -141 79 -170 34 -29 86 -45 146 -45 23 0 42 -4 42 -10 0 -5 13
-10 29 -10 27 0 29 -3 35 -51 4 -28 6 -52 4 -53 -2 -2 -158 -19 -348 -40 -190
-20 -353 -40 -362 -42 -15 -4 -18 1 -18 30 0 20 -5 36 -11 36 -6 0 -9 14 -7
31 3 29 8 33 72 55 124 42 184 113 194 230 3 42 1 64 -6 64 -6 0 -113 -12
-239 -26 -279 -31 -269 -25 -266 -152 6 -247 111 -422 310 -518 50 -24 96 -44
101 -44 8 0 23 -96 17 -107 -1 -2 -91 6 -201 17 -109 11 -215 20 -234 20 -35
0 -36 1 -52 63 -14 51 -148 1205 -148 1274 0 24 41 45 48 24 2 -6 16 -11 31
-11 26 0 29 -4 45 -67 9 -37 23 -74 31 -83 14 -13 70 -9 503 39 574 63 579 64
612 96 21 21 25 36 28 100 l4 75 29 0 c16 0 29 -5 29 -11z m-20811 -179 c349
-103 527 -336 548 -717 5 -89 -2 -189 -32 -497 l-39 -386 -48 0 c-46 0 -48 1
-48 29 0 17 -4 33 -10 36 -5 3 -10 26 -10 50 0 44 -15 69 -48 79 -9 3 -248 28
-531 56 -411 41 -519 49 -541 40 -30 -12 -55 -59 -66 -122 -6 -38 -6 -38 -55
-38 l-49 0 0 34 c0 19 -4 36 -9 38 -5 2 8 172 30 388 44 437 63 531 136 680
87 176 245 305 423 345 89 20 252 13 349 -15z m20345 -2477 c-41 -94 -53 -153
-54 -249 l0 -102 58 -108 c31 -60 74 -126 96 -146 43 -42 147 -96 202 -105 19
-3 37 -9 39 -13 11 -17 -58 -93 -101 -112 -59 -26 -99 -19 -234 40 -141 61
-202 66 -287 24 -209 -106 -375 -95 -464 30 l-19 27 62 -2 c139 -3 234 101
328 359 65 179 147 291 252 343 70 35 135 42 122 14z m-20254 -43 c0 -5 18
-10 40 -10 22 0 40 -2 40 -5 0 -4 -7 -20 -17 -38 -29 -56 -43 -129 -43 -224 0
-92 0 -93 52 -190 28 -54 62 -113 76 -132 35 -47 129 -105 206 -127 36 -10 66
-21 66 -24 0 -4 -14 -24 -30 -47 -66 -89 -143 -94 -313 -19 -157 68 -182 69
-306 11 -57 -26 -130 -52 -166 -58 -114 -19 -212 15 -271 94 l-25 34 43 6 c70
11 115 35 167 89 57 59 117 170 155 284 36 108 79 184 142 255 65 72 184 137
184 101z m20265 -1629 l27 -40 -41 -118 c-22 -65 -52 -161 -66 -213 -39 -143
-45 -158 -62 -164 -36 -14 -52 3 -59 65 l-7 59 -46 -1 c-59 0 -179 -13 -185
-20 -3 -3 -24 -65 -46 -138 -30 -95 -38 -136 -31 -145 23 -28 111 -67 143 -64
28 3 37 11 63 58 34 60 72 80 82 41 3 -11 11 -22 19 -25 22 -8 17 -40 -31
-201 -53 -176 -64 -199 -91 -203 -30 -4 -45 19 -51 85 -3 32 -13 66 -22 77 -9
10 -77 68 -151 129 -74 61 -228 191 -342 290 -176 152 -209 185 -221 220 -15
45 -8 96 16 115 6 6 219 36 472 66 253 31 475 61 494 67 25 9 38 22 53 55 24
55 46 57 83 5z m-19643 -13 c14 -18 42 -89 63 -157 21 -68 58 -175 82 -239 49
-130 51 -155 12 -160 -21 -2 -31 5 -57 48 -26 42 -36 50 -60 50 -37 0 -505
-161 -583 -200 -31 -16 -66 -42 -78 -58 -70 -99 -24 -300 82 -351 80 -39 125
-31 418 70 145 50 274 97 287 105 33 22 41 52 29 113 -8 43 -7 55 4 62 25 15
37 10 59 -28 32 -54 131 -348 124 -367 -3 -9 -18 -16 -33 -16 -21 0 -30 8 -46
43 -33 67 -53 64 -365 -44 -243 -84 -272 -92 -345 -93 -75 -1 -84 1 -133 32
-100 65 -172 180 -228 367 -23 74 -28 110 -28 205 -1 110 0 117 29 169 48 87
80 103 468 236 109 37 208 76 220 85 19 16 22 27 19 81 -1 42 2 65 10 71 20
12 24 10 50 -24z m18468 -924 c40 -10 62 -23 82 -46 15 -18 28 -39 28 -45 0
-26 -39 -51 -108 -67 -76 -19 -120 -46 -158 -97 -63 -86 -72 -230 -18 -328 92
-170 397 -275 585 -202 121 46 202 157 203 275 0 64 -9 88 -64 162 -22 29 -31
53 -33 85 -2 40 0 44 23 47 15 1 52 -14 89 -36 82 -48 111 -96 111 -187 0
-175 -108 -404 -257 -546 -107 -102 -219 -144 -372 -137 -82 3 -106 8 -164 35
-80 38 -172 122 -210 191 -41 75 -76 192 -83 278 -15 190 72 452 201 601 40
47 29 46 145 17z m-18052 -263 c18 -22 32 -42 32 -45 0 -3 29 -72 65 -152 36
-81 65 -157 65 -169 0 -12 -65 -157 -144 -321 -79 -165 -142 -300 -141 -302 6
-6 332 151 352 170 26 24 29 60 11 120 -12 40 -4 57 28 58 18 0 59 -69 99
-165 19 -48 49 -114 66 -147 36 -71 34 -108 -6 -108 -18 0 -29 9 -41 33 -24
47 -44 67 -68 67 -12 0 -198 -79 -415 -175 -217 -96 -402 -175 -413 -175 -22
0 -57 69 -58 111 0 26 63 160 299 643 62 125 110 230 108 232 -2 2 -91 -34
-197 -81 -329 -146 -347 -158 -336 -217 20 -104 19 -116 -4 -123 -31 -10 -54
15 -81 88 -12 34 -40 97 -61 140 -55 112 -72 165 -57 183 19 23 36 16 70 -30
17 -25 37 -47 45 -50 24 -9 90 16 398 152 215 95 313 143 323 159 13 19 13 31
4 69 -9 35 -9 49 0 60 17 20 22 18 57 -25z m17519 -708 c4 -10 14 -23 22 -29
13 -10 13 -19 2 -66 -8 -31 -12 -60 -10 -66 7 -20 603 -355 632 -355 19 0 41
12 71 42 42 41 76 48 76 15 0 -8 7 -17 15 -20 29 -11 14 -53 -64 -183 -44 -72
-101 -172 -127 -222 -49 -92 -70 -114 -98 -103 -19 7 -40 79 -32 111 3 13 9
33 12 46 5 19 -6 29 -88 76 -347 203 -525 301 -548 301 -17 0 -39 -14 -65 -40
-21 -22 -47 -40 -56 -40 -22 0 -41 24 -33 43 3 8 1 18 -5 22 -20 12 -11 35 53
138 35 57 93 158 130 225 51 92 72 122 87 122 11 0 23 -8 26 -17z m-16965
-395 c13 -18 41 -67 63 -108 21 -41 75 -136 120 -210 94 -157 99 -168 84 -186
-19 -23 -43 -16 -84 26 -25 26 -48 40 -65 40 -28 0 -601 -327 -639 -365 -24
-24 -24 -24 -8 -80 17 -60 15 -80 -9 -89 -29 -11 -49 13 -117 139 -38 70 -95
168 -126 219 -49 78 -81 146 -81 169 0 3 9 11 20 17 16 9 27 3 70 -35 39 -35
57 -44 73 -40 20 6 358 196 563 317 45 26 85 55 88 64 4 10 2 42 -4 71 -18 87
7 111 52 51z m16701 -312 c64 -19 101 -48 144 -114 36 -53 38 -61 38 -132 l0
-75 100 0 c55 0 157 -4 227 -9 l128 -9 34 27 c40 30 64 33 73 9 4 -10 13 -23
21 -29 9 -7 13 -20 10 -32 -8 -28 -170 -280 -184 -286 -6 -2 -98 4 -205 15
-251 24 -301 24 -322 1 -15 -16 -9 -22 107 -95 67 -42 131 -77 143 -77 11 0
41 18 67 41 47 42 71 45 83 12 4 -10 14 -23 22 -30 20 -15 14 -24 -114 -218
-49 -75 -108 -164 -130 -198 -31 -49 -45 -62 -65 -62 -21 0 -27 7 -39 43 -12
38 -11 49 3 84 8 23 13 44 11 48 -3 5 -137 94 -299 199 -209 136 -303 191
-323 191 -20 0 -40 -11 -63 -35 -19 -19 -41 -35 -51 -35 -20 0 -43 25 -35 39
4 5 2 12 -4 16 -23 14 -5 51 93 197 56 84 136 207 177 273 106 171 160 225
245 246 45 11 58 10 108 -5z m-16261 -291 c6 -14 15 -25 19 -25 15 0 18 -33 5
-59 -14 -26 -11 -32 172 -293 103 -147 197 -272 210 -277 13 -6 35 -11 50 -11
20 -1 33 -10 50 -37 13 -20 22 -43 20 -52 -4 -19 -233 -149 -264 -150 -26 -1
-39 14 -48 54 -11 48 -9 61 19 106 39 61 43 107 14 152 -13 20 -28 37 -33 37
-16 0 -619 -425 -634 -448 -13 -20 -13 -28 6 -77 23 -59 21 -81 -9 -90 -28 -9
-35 -2 -107 109 -36 55 -102 151 -146 211 -88 118 -113 170 -95 192 18 20 34
16 79 -22 50 -42 73 -43 125 -8 79 53 570 396 579 404 12 11 -28 55 -68 76
-16 8 -69 19 -119 23 -92 9 -109 16 -112 47 -1 10 -6 26 -10 36 -12 29 12 44
131 87 131 47 151 49 166 15z m15575 -576 c160 -141 162 -182 10 -184 -57 0
-92 -6 -114 -18 -32 -17 -143 -145 -143 -165 0 -11 131 -129 175 -158 31 -20
44 -13 101 57 55 67 61 89 40 150 -41 112 -1 127 99 37 39 -35 89 -78 112 -96
106 -83 104 -173 -4 -143 -81 23 -102 16 -167 -51 l-59 -62 54 -49 c30 -27 81
-70 114 -94 55 -41 64 -45 105 -40 39 4 52 13 95 59 81 87 102 176 68 285 -19
60 -12 86 25 91 15 2 35 -16 79 -69 77 -95 113 -147 113 -162 0 -7 -43 -59
-96 -117 -53 -58 -181 -205 -286 -327 -104 -123 -193 -223 -198 -223 -22 0
-40 14 -40 31 0 11 -5 28 -12 38 -10 16 -8 29 12 71 16 35 21 56 15 65 -10 13
-447 393 -499 433 -39 30 -72 28 -126 -8 -57 -38 -69 -38 -77 0 -3 17 -10 33
-14 36 -21 13 -3 41 94 147 57 61 168 189 247 282 161 191 200 235 212 235 4
0 34 -23 65 -51z m-14964 -326 c34 -38 161 -169 283 -293 213 -217 254 -264
254 -292 0 -16 -128 -143 -152 -151 -39 -14 -70 70 -59 166 6 55 4 73 -9 95
-21 33 -125 132 -139 132 -15 0 -221 -192 -221 -206 0 -6 22 -32 50 -58 55
-52 75 -56 150 -29 40 14 51 15 64 4 9 -7 16 -19 16 -26 0 -7 7 -15 15 -19 28
-10 15 -44 -32 -87 -27 -24 -78 -75 -114 -112 -50 -53 -71 -68 -89 -65 -13 1
-26 10 -30 18 -34 69 -34 69 -17 118 9 26 17 57 17 68 0 20 -89 114 -107 114
-17 -1 -223 -208 -233 -235 -22 -59 17 -118 110 -166 45 -23 83 -26 224 -17
30 2 41 -2 50 -17 6 -10 17 -25 24 -33 24 -26 11 -55 -36 -84 -21 -12 -60 -39
-88 -60 -28 -21 -58 -38 -66 -38 -9 0 -106 96 -216 213 -110 116 -245 256
-301 309 -55 54 -101 105 -101 113 0 8 -6 24 -12 35 -11 16 -10 23 5 37 17 17
19 17 50 -1 76 -45 88 -49 113 -37 38 17 524 491 530 517 4 14 2 30 -4 37 -15
18 -42 99 -36 109 14 23 50 3 107 -59z m14265 -445 c7 -13 17 -30 24 -40 10
-14 6 -23 -25 -57 -20 -23 -37 -45 -37 -51 0 -16 211 -250 404 -447 99 -101
117 -109 171 -73 38 25 65 25 72 1 3 -11 11 -22 19 -25 8 -3 14 -16 14 -30 0
-19 -25 -45 -112 -117 -62 -51 -146 -123 -186 -161 -90 -85 -118 -100 -138
-73 -8 11 -12 25 -10 32 3 7 1 15 -4 18 -18 11 -11 36 20 75 17 21 30 42 30
47 0 10 -356 407 -369 411 -5 2 39 -145 97 -325 58 -180 106 -346 106 -368 1
-32 -4 -42 -25 -54 -25 -14 -39 -8 -355 139 -181 84 -333 156 -339 159 -5 2
-3 -4 6 -15 9 -10 82 -101 162 -200 80 -100 153 -184 162 -188 31 -11 52 -6
96 24 50 34 77 38 86 13 3 -10 13 -26 20 -35 24 -27 8 -51 -85 -131 -48 -41
-106 -91 -129 -111 -57 -49 -77 -47 -96 9 -14 45 -14 46 15 82 16 20 27 42 26
49 -2 7 -104 141 -227 299 -157 200 -229 285 -243 285 -11 0 -39 -14 -62 -30
-43 -31 -75 -32 -77 -4 -3 28 -4 32 -11 40 -22 21 2 51 132 163 77 67 143 121
146 121 3 0 136 -61 296 -135 160 -74 292 -134 294 -133 1 2 -40 138 -92 303
-51 165 -94 305 -94 311 0 19 263 243 286 244 12 0 26 -10 32 -22z m-13562
-286 c283 -170 504 -398 590 -607 26 -63 28 -82 29 -185 0 -109 -2 -119 -32
-182 -36 -77 -107 -158 -171 -195 -151 -89 -371 -85 -560 11 -90 46 -120 69
-312 241 -91 81 -182 159 -202 173 -35 23 -58 66 -58 110 0 24 29 24 84 1 40
-16 61 -20 76 -13 24 11 480 533 480 549 0 6 -11 22 -25 35 -14 13 -25 31 -25
40 0 9 -5 21 -11 27 -7 7 -9 19 -6 27 11 29 61 18 143 -32z m12494 -1097 c225
-135 422 -248 439 -251 21 -5 40 0 66 16 29 18 38 20 50 10 8 -7 15 -18 15
-25 0 -7 7 -15 15 -19 8 -3 15 -17 15 -30 0 -21 -20 -39 -117 -104 -65 -44
-158 -109 -207 -146 -98 -73 -132 -82 -142 -38 -4 15 -11 32 -16 39 -12 15 5
49 32 63 11 6 20 14 20 19 0 10 -160 114 -176 114 -6 0 -66 -38 -133 -84 -135
-94 -131 -84 -92 -188 24 -65 38 -70 112 -36 l62 28 28 -34 c45 -54 39 -71
-43 -127 -40 -27 -109 -75 -152 -106 -85 -61 -128 -71 -134 -31 -2 11 -8 30
-14 42 -9 19 -6 28 26 63 20 22 36 49 36 59 0 11 -20 109 -44 218 -86 387
-147 722 -136 743 10 18 55 49 73 50 5 0 193 -110 417 -245z m-10375 -380 c91
-24 174 -73 248 -147 83 -84 85 -101 24 -208 -38 -67 -46 -75 -72 -75 -25 0
-32 6 -42 35 -7 19 -12 69 -12 110 -1 52 -6 83 -17 98 -40 58 -171 86 -228 49
-38 -25 -59 -78 -46 -113 6 -15 57 -75 113 -134 126 -131 177 -220 177 -309 0
-122 -61 -216 -178 -273 -63 -31 -73 -33 -172 -33 -90 1 -114 4 -168 27 -93
39 -167 86 -238 153 -50 47 -67 71 -78 108 l-15 49 47 91 c56 109 74 118 117
61 l29 -37 -12 -83 c-15 -99 -4 -137 49 -176 112 -83 263 -76 311 13 37 70 27
92 -115 256 -80 91 -109 137 -137 218 -27 79 -25 130 6 193 47 94 136 141 269
142 45 0 107 -7 140 -15z m612 -265 c3 -11 9 -20 14 -20 5 0 13 -10 18 -23 7
-18 66 -46 312 -145 167 -67 317 -122 332 -122 16 0 42 8 57 17 24 14 31 14
44 4 9 -8 16 -19 16 -26 0 -7 7 -15 15 -19 8 -3 15 -13 15 -22 0 -20 -126
-260 -141 -270 -6 -3 -21 -3 -33 0 -28 7 -56 81 -56 149 0 37 -5 49 -28 69
-29 24 -109 64 -116 57 -10 -10 -286 -704 -286 -718 0 -9 13 -25 29 -34 17
-10 33 -26 36 -37 4 -11 10 -20 15 -20 5 0 12 -9 15 -20 7 -24 -10 -50 -32
-50 -8 0 -76 26 -152 59 -75 32 -176 73 -226 91 -115 41 -138 55 -130 81 4 11
2 19 -4 19 -18 0 -12 39 8 49 10 6 20 8 23 6 2 -3 26 -6 52 -6 35 -2 52 3 66
17 10 10 73 152 139 314 65 162 126 312 135 333 16 37 16 37 -9 47 -15 6 -47
10 -72 10 -42 0 -67 -10 -168 -64 -59 -32 -88 -19 -100 46 -7 35 -3 43 75 143
65 84 86 105 107 105 16 0 27 -7 30 -20z m7868 -33 c27 -45 85 -187 85 -209 0
-10 -11 -23 -24 -29 -24 -11 -28 -10 -121 46 -23 14 -56 25 -77 25 -42 0 -201
-54 -218 -75 -14 -17 80 -258 103 -263 22 -5 166 67 177 89 6 10 12 42 14 69
4 51 19 80 41 80 22 0 61 -62 85 -135 12 -38 36 -96 51 -127 43 -85 37 -128
-16 -128 -8 0 -35 18 -60 40 -37 32 -54 40 -84 40 -42 0 -149 -43 -157 -63 -3
-10 36 -115 103 -276 5 -10 21 -12 73 -7 l66 7 27 -38 c39 -54 25 -67 -124
-123 -68 -25 -171 -67 -229 -92 -58 -25 -112 -48 -120 -50 -24 -8 -50 11 -50
35 0 13 -5 28 -10 33 -16 16 -3 36 43 69 27 19 43 40 45 55 3 28 -230 615
-256 644 -15 16 -26 17 -84 12 -59 -5 -68 -4 -77 13 -6 10 -8 21 -5 24 3 3 0
14 -8 26 -10 17 -10 23 2 34 8 8 117 53 241 101 124 47 286 113 360 145 74 33
145 60 159 60 18 1 31 -8 45 -32z m-1115 -439 c78 -18 186 -76 237 -126 108
-106 163 -221 170 -358 6 -103 -9 -172 -59 -265 -31 -60 -117 -151 -182 -195
-183 -124 -466 -149 -662 -60 -63 29 -151 108 -194 176 -42 66 -80 182 -87
265 -17 231 143 456 384 540 124 44 271 52 393 23z m-5486 6 c8 -3 26 -21 40
-39 23 -30 32 -75 96 -477 39 -244 73 -456 76 -471 4 -20 16 -33 37 -42 37
-15 80 -68 75 -92 -7 -35 -34 -38 -115 -13 -43 13 -151 42 -240 64 -159 40
-182 50 -187 77 -2 8 -6 22 -11 32 -15 36 2 50 54 44 71 -8 76 1 62 114 -5 51
-13 94 -15 97 -8 8 -249 72 -272 72 -22 0 -52 -38 -93 -118 -26 -50 -21 -60
39 -87 22 -10 40 -24 40 -32 0 -7 7 -16 15 -19 9 -4 15 -19 15 -35 0 -40 -33
-46 -118 -20 -37 11 -114 31 -170 45 -118 28 -122 31 -122 57 0 10 -5 28 -12
38 -20 33 7 54 58 46 55 -8 76 11 201 173 107 141 412 522 451 565 25 26 61
34 96 21z m620 -120 c9 -3 16 -12 16 -18 0 -7 10 -21 23 -32 17 -16 91 -32
354 -78 182 -32 341 -55 351 -52 11 4 27 15 37 26 27 30 57 24 83 -17 l23 -35
-37 -127 c-47 -161 -48 -163 -87 -159 -30 3 -33 7 -58 82 -15 47 -35 87 -48
97 -25 21 -83 39 -122 39 l-25 0 -62 -352 c-34 -194 -63 -364 -64 -378 -3 -21
5 -29 45 -48 26 -12 47 -29 47 -36 0 -8 7 -17 16 -20 10 -4 14 -15 12 -33 -4
-38 -31 -40 -165 -12 -60 12 -171 31 -247 43 -97 15 -141 25 -146 36 -32 64
-33 69 -20 85 7 8 27 15 45 15 57 0 93 19 104 53 6 18 35 172 66 342 30 171
58 322 61 336 5 21 2 27 -18 32 -62 17 -135 -9 -205 -73 -57 -53 -87 -67 -108
-50 -8 7 -15 19 -15 26 0 8 -6 23 -12 34 -11 17 -5 35 41 127 78 159 79 161
115 147z m2634 -245 c68 -20 95 -65 100 -165 2 -46 1 -95 -2 -109 -6 -22 -11
-26 -39 -23 -27 3 -36 10 -57 54 -40 81 -67 111 -116 130 -39 15 -52 15 -99 5
-62 -14 -119 -60 -130 -104 -15 -58 8 -74 174 -122 149 -43 209 -74 266 -137
91 -101 117 -219 74 -333 -41 -110 -159 -202 -298 -235 -83 -19 -269 -8 -356
21 -69 24 -70 25 -87 74 -22 66 -24 227 -3 245 32 27 77 -22 109 -118 22 -67
53 -93 127 -108 148 -30 289 42 289 148 0 55 -41 84 -198 139 -200 71 -284
132 -321 232 -53 146 0 274 150 360 42 24 116 51 169 61 42 8 204 -1 248 -15z
m-780 -5 c12 -2 22 -11 22 -20 0 -8 7 -17 15 -20 12 -5 15 -27 15 -113 0 -159
-19 -168 -125 -57 -68 72 -72 75 -129 82 -69 8 -164 0 -180 -16 -6 -6 -12 -64
-15 -140 l-3 -130 78 0 c44 0 90 6 104 13 14 7 37 35 51 62 19 39 31 51 52 53
19 2 29 -2 34 -15 4 -10 13 -22 20 -28 10 -8 11 -45 5 -180 l-7 -170 -35 0
c-33 0 -37 4 -63 58 -21 45 -35 61 -62 73 -36 15 -142 19 -162 6 -8 -5 -13
-55 -15 -159 -3 -147 -2 -153 20 -175 19 -20 32 -23 95 -22 123 1 196 37 261
131 40 56 80 72 93 36 4 -10 13 -23 22 -29 12 -10 12 -24 -4 -120 -10 -60 -22
-117 -27 -126 -7 -15 -43 -16 -445 -11 -274 4 -443 9 -451 16 -7 5 -12 17 -11
26 1 9 -1 24 -6 34 -13 30 2 45 60 57 38 8 60 18 70 33 10 17 15 99 21 374 l7
351 -44 12 c-77 21 -89 28 -89 53 0 13 -5 28 -12 35 -8 8 -8 15 0 25 10 11 80
13 414 10 222 -2 413 -6 426 -9z"/>
<path d="M13648 22646 c-166 -46 -283 -241 -339 -564 -21 -128 -25 -303 -8
-384 25 -113 82 -198 163 -241 56 -29 181 -29 249 1 169 75 280 309 318 669
18 177 -4 321 -64 410 -59 89 -209 140 -319 109z"/>
<path d="M17788 21023 c-46 -54 -608 -905 -608 -922 0 -11 19 -36 42 -55 99
-85 237 -99 364 -36 205 100 430 438 459 687 15 133 -28 223 -144 301 -69 46
-90 51 -113 25z"/>
<path d="M11640 20788 c-1224 -31 -2441 -331 -3565 -877 -2644 -1286 -4474
-3819 -4854 -6721 -53 -400 -72 -712 -72 -1163 1 -1243 239 -2375 743 -3532
78 -178 301 -619 403 -795 722 -1251 1712 -2288 2920 -3055 1622 -1031 3551
-1499 5475 -1329 1475 130 2870 620 4095 1439 836 559 1556 1239 2157 2040
1424 1897 2012 4290 1633 6645 -225 1394 -789 2719 -1643 3855 -397 528 -890
1045 -1411 1479 -1052 877 -2326 1505 -3662 1805 -730 164 -1425 230 -2219
209z m885 -217 c801 -66 1467 -201 2170 -441 1065 -364 2017 -919 2900 -1689
140 -122 571 -549 696 -690 1186 -1329 1917 -2938 2129 -4681 53 -439 74
-1041 51 -1465 -73 -1351 -431 -2588 -1084 -3755 -505 -902 -1204 -1737 -2022
-2414 -702 -582 -1563 -1081 -2420 -1403 -2654 -998 -5632 -625 -7944 994
-423 296 -745 567 -1134 952 -1436 1421 -2323 3317 -2491 5321 -16 186 -19
236 -25 432 -18 545 12 1064 90 1583 335 2231 1537 4230 3361 5588 930 692
2004 1191 3143 1460 482 114 974 184 1520 217 180 11 890 4 1060 -9z"/>
<path d="M11487 14489 c8 -16 13 -45 11 -64 l-4 -33 23 24 c12 13 27 24 32 24
18 0 -43 79 -61 80 -15 0 -15 -3 -1 -31z"/>
<path d="M11342 14481 l-43 -6 29 -13 c16 -7 35 -23 42 -37 7 -14 15 -23 18
-20 3 2 -1 11 -7 19 -10 12 -9 20 4 40 10 14 13 25 9 24 -5 0 -28 -4 -52 -7z"/>
<path d="M11432 14471 c-8 -5 -12 -21 -10 -37 4 -39 32 -39 36 0 4 33 -7 49
-26 37z"/>
<path d="M10987 14411 c3 -12 9 -21 14 -21 14 0 11 16 -5 29 -12 10 -13 8 -9
-8z"/>
<path d="M3825 14330 c-6 -10 46 -103 95 -169 34 -47 132 -118 183 -133 32
-10 64 -35 136 -110 51 -54 125 -119 164 -145 71 -47 179 -93 220 -93 16 0 31
-15 55 -54 85 -142 194 -242 347 -316 147 -71 288 -99 499 -100 l89 0 92 -92
c218 -220 260 -256 334 -292 130 -62 275 -69 409 -18 l49 19 74 -54 c92 -68
253 -148 339 -169 36 -9 99 -18 140 -19 51 -1 90 -8 120 -22 112 -50 289 -62
423 -30 l68 17 33 -25 c17 -13 59 -37 91 -52 51 -23 74 -27 148 -28 l88 0 9
-36 c13 -48 63 -115 99 -134 l30 -15 -25 -48 c-28 -52 -27 -97 2 -154 16 -30
66 -58 106 -58 21 0 21 -1 -9 -32 -39 -42 -53 -69 -53 -106 0 -72 32 -108 115
-128 46 -11 47 -13 20 -48 -36 -47 -55 -99 -55 -151 0 -40 3 -47 28 -56 15 -6
62 -11 105 -12 42 0 77 -1 77 -2 0 -1 -9 -19 -19 -41 -23 -47 -41 -139 -41
-210 0 -45 3 -52 23 -58 40 -11 171 -6 225 8 l52 13 -6 -37 c-6 -34 4 -102 27
-192 9 -37 11 -38 53 -38 36 0 119 20 229 57 15 5 17 -2 18 -48 0 -52 11 -93
36 -134 10 -18 15 -19 68 -8 31 7 81 23 110 37 l54 24 6 -37 c11 -65 13 -66
109 -53 47 6 99 18 115 27 30 15 31 15 36 -12 14 -65 22 -73 70 -73 54 0 133
29 181 65 l35 27 39 -36 c22 -20 48 -36 58 -36 22 0 109 43 143 71 l26 21 49
-37 c40 -31 54 -36 82 -31 64 10 127 49 206 128 89 90 87 76 37 222 -33 96
-70 254 -95 401 -44 262 -81 761 -74 1018 l3 128 -82 39 c-47 22 -103 58 -133
86 l-50 47 0 66 c0 36 10 113 21 171 16 75 22 146 23 250 1 128 -2 153 -22
212 -105 302 -517 598 -972 697 -182 39 -328 52 -675 61 -187 5 -350 12 -363
16 -15 4 -29 1 -41 -10 -15 -13 -56 -18 -212 -27 -123 -6 -196 -14 -200 -21
-5 -8 -96 -14 -281 -20 -150 -4 -354 -15 -453 -24 -266 -23 -562 -43 -632 -44
-34 0 -65 -4 -68 -10 -8 -13 -514 -13 -705 0 -240 17 -555 55 -702 86 -20 4
-28 1 -33 -15 -8 -26 -30 -26 -197 -5 -178 22 -403 69 -556 114 -142 43 -157
46 -167 30z m685 -496 c25 -13 34 -22 20 -18 -35 9 -98 43 -80 43 8 0 35 -11
60 -25z m3989 1 c16 -8 59 -40 97 -71 91 -74 127 -91 226 -108 l83 -14 -76 -1
c-134 -2 -304 56 -348 118 -26 36 -39 91 -22 91 7 0 25 -7 40 -15z m-1678 -21
c46 -14 125 -30 174 -34 l90 -9 -105 4 c-99 4 -209 28 -250 55 -25 16 2 11 91
-16z m374 -25 c-22 -4 -53 -8 -70 -7 -29 1 -29 1 5 8 19 4 51 7 70 8 l35 0
-40 -9z m-2425 -33 c81 -13 82 -14 30 -14 -30 0 -73 5 -95 13 -52 17 -38 17
65 1z m2445 -111 c50 -8 117 -15 150 -16 l60 -1 -50 -14 c-80 -23 -202 -20
-263 6 -96 41 -55 51 103 25z m-2275 -155 l25 -21 -37 17 c-20 10 -39 23 -42
31 -7 16 14 6 54 -27z m3785 15 c20 -26 81 -43 275 -76 l75 -13 -60 -7 c-75
-8 -260 0 -302 12 -58 18 -107 88 -70 102 30 13 62 6 82 -18z m-1100 -55 c59
-22 61 -22 160 -6 120 19 127 19 95 1 -51 -30 -153 -55 -221 -55 -80 0 -135
22 -163 66 l-18 26 44 -5 c23 -3 70 -15 103 -27z m-2445 -70 c55 -19 130 -35
180 -39 l85 -8 -71 -2 c-83 -1 -201 26 -271 64 -26 14 -41 24 -33 21 8 -3 58
-19 110 -36z m1115 -125 c33 0 107 3 165 7 87 6 96 5 55 -4 -76 -16 -425 -16
-450 0 -17 11 -5 12 75 5 52 -4 122 -8 155 -8z m1835 -17 c-65 -54 -204 -99
-264 -84 -28 7 -86 53 -86 68 0 12 25 7 90 -17 71 -26 163 -17 225 22 59 37
70 41 35 11z m707 -15 c66 -24 93 -28 176 -27 107 1 108 -4 6 -31 -46 -12 -92
-16 -147 -14 -70 4 -86 8 -123 34 -47 33 -51 47 -17 57 13 3 24 6 25 7 2 1 38
-11 80 -26z m-3037 -43 c191 -118 380 -154 604 -114 48 8 90 13 92 11 14 -14
-127 -39 -242 -44 -155 -6 -246 9 -362 63 -76 35 -172 99 -172 115 0 15 13 10
80 -31z m2600 -101 c-19 -17 -52 -40 -74 -51 -45 -23 -135 -35 -161 -21 -13 8
-4 11 40 16 38 4 86 20 139 46 44 22 83 40 86 40 3 0 -11 -13 -30 -30z m-1134
-28 c-41 -46 -389 -71 -516 -37 -95 25 -100 38 -10 29 129 -14 428 -7 485 10
28 8 52 16 54 16 2 1 -4 -8 -13 -18z m1643 -38 c50 -25 69 -28 201 -33 l145
-5 -64 -18 c-54 -16 -82 -18 -172 -12 -125 8 -172 26 -177 69 -4 32 -2 32 67
-1z m-294 -95 c-29 -16 -62 -22 -120 -24 l-80 -3 70 14 c39 8 84 18 100 24 56
18 73 11 30 -11z m-1871 -122 c85 -51 149 -70 236 -70 63 1 89 7 165 37 49 20
96 37 104 37 27 0 -20 -39 -86 -72 -114 -56 -257 -50 -391 17 -69 35 -164 117
-112 97 14 -6 51 -26 84 -46z m1411 -56 c-3 -5 -12 -10 -18 -10 -7 0 -6 4 3
10 19 12 23 12 15 0z m1049 -11 c-24 -10 -133 -10 -157 -1 -9 4 26 8 80 8 53
0 88 -3 77 -7z m-1299 -65 c-56 -17 -112 -26 -190 -29 -140 -7 -112 9 53 30
65 8 131 16 147 18 68 9 66 5 -10 -19z m825 -249 c-83 -48 -279 -80 -427 -69
-52 4 -92 8 -90 10 1 2 79 8 173 14 123 7 193 17 255 34 97 28 124 31 89 11z
m705 -31 c-36 -29 -100 -54 -135 -53 l-35 1 35 7 c19 4 58 19 85 34 56 29 80
34 50 11z m-671 -204 c-5 -5 -43 -21 -83 -35 -99 -33 -252 -50 -366 -40 -109
10 -104 11 105 25 118 7 189 17 250 34 98 28 108 30 94 16z m757 -100 c-39
-36 -49 -40 -96 -40 -45 0 -58 5 -85 30 -39 36 -34 51 7 21 44 -33 92 -37 141
-12 22 11 43 25 47 31 3 5 12 10 18 10 7 -1 -8 -19 -32 -40z m-666 -179 c-20
-17 -128 -51 -212 -66 -89 -16 -202 -18 -288 -6 -39 5 -10 9 135 18 139 10
206 19 270 37 96 28 108 30 95 17z m1265 -88 c-40 -76 -97 -123 -149 -123 -20
0 -43 5 -51 11 -11 8 -3 9 30 4 l44 -6 71 76 c38 41 71 75 73 75 1 0 -7 -17
-18 -37z m-1125 -109 c-31 -24 -144 -79 -200 -98 -65 -21 -209 -46 -260 -45
-27 0 12 12 115 35 107 24 185 49 250 79 101 46 127 54 95 29z m149 -215 c-42
-45 -139 -112 -220 -153 -71 -36 -224 -90 -231 -82 -3 2 6 7 19 11 75 23 311
148 373 198 77 62 105 74 59 26z m265 -141 c-22 -41 -133 -145 -204 -191 -78
-49 -175 -100 -181 -94 -2 2 56 42 129 90 77 50 159 113 197 151 35 37 66 66
68 66 1 0 -3 -10 -9 -22z m224 -99 c-49 -83 -186 -205 -308 -274 -66 -37 -53
-26 90 83 71 53 142 117 174 156 30 36 56 66 58 66 2 0 -4 -14 -14 -31z"/>
<path d="M19650 14329 c-111 -45 -433 -116 -648 -143 -167 -21 -189 -21 -197
5 -5 16 -13 19 -33 15 -156 -32 -473 -70 -722 -86 -298 -20 -684 -6 -1265 44
-282 25 -320 27 -588 35 -174 5 -261 11 -266 19 -4 7 -77 15 -200 21 -156 9
-197 14 -212 27 -12 11 -26 14 -41 10 -13 -4 -176 -11 -363 -16 -537 -14 -773
-57 -1050 -190 -289 -139 -508 -345 -593 -557 -25 -63 -27 -78 -26 -213 1
-106 7 -174 22 -253 12 -59 22 -139 22 -176 0 -67 -1 -69 -42 -110 -44 -44
-194 -123 -256 -136 l-33 -7 6 -181 c12 -319 -18 -776 -71 -1067 -53 -291
-106 -435 -270 -738 -118 -216 -189 -323 -310 -469 l-93 -111 29 -87 c69 -203
99 -434 81 -603 -7 -59 -15 -118 -18 -131 -6 -23 -5 -24 43 -16 27 4 64 13 83
21 19 8 36 12 39 9 19 -19 -77 -248 -128 -303 -48 -53 -14 -36 44 22 74 75
108 150 112 248 3 92 8 102 75 162 l52 46 56 -53 c76 -72 107 -92 193 -127 75
-31 96 -37 66 -19 -15 8 -13 14 22 46 52 46 109 162 117 235 l6 56 46 -53 c64
-73 135 -135 209 -183 l63 -41 -44 -45 c-60 -63 -46 -58 24 9 32 30 63 55 70
55 7 0 -17 19 -52 41 -97 63 -199 151 -257 222 -59 74 -68 94 -78 175 -6 55
-5 60 14 66 34 11 68 68 87 146 26 111 24 108 42 72 20 -40 107 -122 178 -165
29 -17 91 -61 137 -96 72 -55 88 -73 119 -135 55 -108 91 -222 95 -298 2 -56
8 -74 30 -104 15 -20 36 -59 45 -87 10 -29 18 -44 19 -34 0 24 -24 81 -51 118
-16 23 -22 48 -25 104 -2 57 -14 108 -54 224 -29 82 -49 154 -46 159 3 5 24
12 47 15 23 3 46 10 51 15 13 13 -20 134 -61 226 -93 206 -318 468 -560 651
-58 44 -151 143 -151 161 0 2 24 -8 53 -21 70 -33 92 -31 144 11 l44 36 52
-36 c45 -31 103 -56 129 -56 5 0 26 16 47 36 l40 35 41 -30 c54 -39 128 -63
182 -59 42 3 43 5 58 50 l15 46 28 -14 c15 -8 66 -20 113 -26 96 -13 98 -12
109 53 l6 36 69 -28 c38 -16 89 -32 113 -35 44 -6 46 -5 63 27 9 19 19 65 22
102 4 57 7 68 21 63 101 -34 191 -56 227 -56 42 0 44 1 53 38 22 83 33 164 28
195 l-5 34 51 -14 c53 -13 184 -17 225 -7 20 6 22 13 22 65 0 69 -15 147 -41
206 l-18 42 57 -1 c31 -2 78 1 105 5 l47 8 0 50 c0 55 -18 107 -55 155 -27 35
-26 37 20 48 84 20 115 55 115 130 0 35 -31 92 -63 118 l-22 18 23 0 c40 0 90
28 106 58 29 57 30 102 2 154 l-25 48 28 15 c40 20 78 68 97 123 l17 47 86 0
c73 0 95 4 146 28 32 15 74 39 91 52 32 25 34 25 96 10 153 -35 296 -27 413
22 43 18 81 26 135 28 41 2 104 10 140 19 86 21 248 102 340 169 l73 54 49
-19 c134 -51 279 -44 409 18 74 36 110 67 334 292 l93 92 88 0 c113 0 259 16
338 36 92 23 253 105 329 168 72 61 142 142 185 218 19 35 33 48 49 48 41 0
149 46 220 93 64 43 203 173 238 223 8 12 30 25 49 28 48 9 146 76 187 127 52
65 111 167 104 179 -8 12 -42 12 -75 -1z m-577 -494 c-79 -36 -105 -39 -43 -6
30 17 64 30 75 30 11 0 -3 -11 -32 -24z m-3977 -17 c-9 -47 -49 -93 -102 -117
-77 -36 -190 -61 -273 -60 l-76 1 83 14 c97 16 138 35 218 102 67 56 123 92
143 92 10 0 12 -8 7 -32z m1724 12 c-41 -27 -151 -51 -250 -55 l-105 -4 90 9
c50 4 126 19 170 33 88 28 121 34 95 17z m-405 -39 c35 -8 36 -9 10 -9 -16 -1
-48 3 -70 7 -35 8 -36 9 -10 9 17 1 48 -3 70 -7z m2430 -36 c-22 -8 -65 -13
-95 -13 -54 1 -54 1 25 13 104 16 119 16 70 0z m-2355 -104 c0 -5 -23 -19 -52
-31 -61 -26 -183 -29 -263 -6 l-50 14 65 2 c36 1 115 9 175 19 109 17 125 18
125 2z m-1586 -127 c33 -13 14 -55 -38 -89 -34 -22 -212 -37 -316 -26 -65 7
-65 7 -25 15 281 55 280 54 299 80 19 25 48 32 80 20z m3746 -24 c-37 -29 -50
-24 -16 6 15 14 31 22 35 19 3 -4 -5 -15 -19 -25z m-2592 -42 c-29 -44 -87
-68 -164 -68 -72 0 -172 24 -224 55 -32 18 -20 18 91 -1 96 -16 152 -11 209
21 14 8 42 14 64 15 38 0 38 0 24 -22z m2389 -64 c-72 -37 -189 -64 -271 -63
l-71 2 85 7 c55 5 121 20 185 43 122 42 134 44 72 11z m-1187 -139 c36 0 106
4 155 8 76 7 87 6 70 -5 -25 -16 -374 -16 -450 0 -42 9 -32 10 55 4 58 -4 134
-7 170 -7z m-1770 -47 c43 -22 139 -23 195 -2 22 9 54 18 70 21 l30 6 -25 -28
c-41 -44 -77 -58 -137 -52 -59 6 -163 51 -203 87 l-25 22 30 -18 c17 -10 46
-26 65 -36z m-647 22 c10 -9 -46 -54 -86 -69 -49 -19 -175 -12 -252 13 l-70
22 105 0 c88 0 116 5 175 27 66 24 107 26 128 7z m2962 -46 c-57 -50 -206
-119 -299 -139 -99 -22 -310 -16 -399 11 -31 9 -56 19 -53 21 2 2 44 -3 92
-11 224 -40 413 -4 604 114 81 50 109 52 55 4z m-2463 -161 c66 -7 68 -23 3
-23 -54 0 -130 27 -179 65 -57 43 -42 44 42 3 50 -25 97 -41 134 -45z m1218
12 c96 0 208 3 248 8 87 9 87 -3 0 -28 -122 -35 -482 -11 -523 35 -16 18 -15
18 42 2 43 -12 102 -16 233 -17z m-1852 -22 c-2 -19 -14 -32 -40 -45 -49 -26
-262 -31 -323 -8 -39 15 -38 15 100 20 125 5 146 8 195 32 70 33 72 33 68 1z
m337 -103 l90 -20 -80 3 c-59 3 -90 9 -120 26 -38 21 -38 22 -10 17 17 -3 71
-15 120 -26z m1859 -75 c-9 -22 -116 -90 -182 -116 -46 -18 -78 -23 -162 -23
-99 -1 -109 1 -171 31 -72 36 -116 73 -85 73 10 0 49 -14 86 -30 126 -55 214
-60 330 -17 30 11 66 28 80 37 23 16 102 60 107 60 1 0 0 -7 -3 -15z m-2459
-99 c47 1 71 -2 60 -7 -33 -13 -138 -9 -170 6 l-30 14 30 -7 c17 -4 66 -6 110
-6z m1332 -71 c169 -21 200 -37 58 -30 -79 3 -132 12 -190 30 -89 28 -92 28
132 0z m-873 -260 c65 -18 136 -27 260 -35 94 -6 172 -12 173 -14 2 -2 -38 -6
-90 -10 -148 -11 -344 21 -427 69 -35 20 -18 18 84 -10z m-741 -32 c29 -14 68
-30 87 -34 l35 -7 -35 -1 c-35 -1 -99 24 -135 53 -30 23 -10 19 48 -11z m712
-208 c65 -18 136 -28 255 -35 209 -14 214 -15 105 -25 -114 -10 -260 6 -363
41 -42 14 -81 30 -86 35 -13 12 -13 12 89 -16z m-860 -55 c4 -6 25 -20 47 -31
49 -25 97 -21 141 12 40 29 46 16 9 -21 -51 -50 -142 -40 -201 24 -14 14 -19
26 -13 26 6 0 14 -5 17 -10z m-255 -234 c37 -25 96 -21 125 9 22 22 25 22 25
5 0 -25 -46 -60 -79 -60 -79 1 -203 94 -226 170 -5 19 8 10 61 -41 38 -36 80
-74 94 -83z m1025 9 c68 -19 136 -28 275 -38 145 -9 174 -13 135 -18 -135 -19
-314 -1 -432 42 -49 18 -88 39 -72 39 2 0 45 -11 94 -25z m-1184 -180 c32 5
40 4 29 -4 -8 -6 -32 -11 -53 -11 -30 0 -46 8 -80 39 -23 22 -53 59 -66 83
-21 40 -18 37 51 -35 l74 -78 45 6z m1037 -26 c78 -37 124 -49 397 -112 42
-10 -48 -7 -118 4 -133 20 -291 78 -362 133 -33 25 -10 18 83 -25z m-173 -215
c62 -50 294 -173 373 -198 13 -5 22 -10 19 -12 -7 -7 -169 52 -237 86 -77 38
-173 105 -214 149 -46 49 -18 36 59 -25z m-69 -311 c67 -43 130 -84 140 -90
50 -34 -111 44 -176 85 -77 48 -198 159 -220 202 -7 14 20 -6 61 -47 41 -39
129 -107 195 -150z m-435 62 c31 -39 100 -101 173 -157 139 -105 157 -121 101
-88 -136 80 -273 200 -318 279 -28 48 -14 37 44 -34z m-440 -775 c179 -176
293 -336 364 -511 54 -135 54 -136 5 -149 -56 -15 -118 -1 -218 49 -104 52
-199 125 -233 179 -27 44 -28 48 -27 181 2 159 -13 232 -69 349 -20 42 -39 81
-41 86 -13 27 108 -75 219 -184z"/>
<path d="M10780 14281 c0 -8 49 -123 55 -130 8 -7 133 -30 200 -35 68 -6 69
-5 37 9 -17 8 -53 30 -80 49 -58 42 -212 119 -212 107z"/>
<path d="M4400 13338 c0 -13 7 -80 14 -150 22 -208 11 -272 -104 -569 -116
-299 -147 -457 -137 -699 10 -213 42 -356 161 -705 58 -171 88 -299 190 -794
69 -336 69 -344 -4 -231 -59 92 -96 234 -150 580 -16 107 -39 226 -50 265 -71
254 -225 501 -441 711 -92 89 -134 116 -186 117 -63 2 -61 -12 33 -159 48 -77
98 -169 110 -205 29 -81 50 -211 64 -398 26 -346 150 -687 317 -872 19 -21 99
-79 179 -129 79 -50 144 -93 144 -94 0 -2 -33 7 -72 20 -40 13 -89 26 -108 29
-25 4 -40 13 -52 35 -57 100 -208 61 -208 -54 0 -117 157 -156 207 -52 19 41
31 43 108 22 137 -36 281 -134 223 -150 -75 -21 -107 -35 -142 -60 -35 -26
-48 -30 -93 -27 -80 4 -123 -35 -123 -115 0 -54 53 -104 110 -104 34 0 48 6
76 34 28 28 34 41 34 78 0 24 -6 50 -12 57 -11 10 -7 18 19 41 28 25 114 60
148 60 7 0 24 -54 41 -127 26 -115 29 -147 30 -318 1 -220 7 -270 41 -380 51
-161 128 -278 302 -458 64 -66 107 -117 96 -113 -11 5 -38 10 -60 13 -28 4
-48 15 -65 35 -65 76 -193 28 -193 -72 0 -64 48 -110 117 -110 43 0 92 39 101
80 6 26 11 30 39 30 62 0 135 -48 249 -163 59 -60 106 -111 104 -113 -2 -3
-28 1 -58 7 -30 6 -63 13 -75 15 -11 2 -26 14 -33 27 -7 13 -25 31 -41 40
-115 68 -231 -92 -129 -177 60 -51 145 -31 175 40 15 35 15 35 62 28 26 -4 71
-15 100 -26 65 -24 81 -44 290 -378 167 -265 239 -372 353 -521 154 -202 387
-458 568 -624 l75 -68 -65 34 c-98 51 -256 216 -453 471 -92 120 -189 237
-216 261 -52 47 -268 167 -413 229 -149 65 -255 81 -367 57 -58 -12 -64 -24
-17 -33 98 -18 263 -134 359 -253 31 -37 111 -149 178 -248 164 -240 265 -369
385 -490 111 -112 188 -167 285 -204 57 -22 81 -25 195 -25 122 0 135 2 213
32 l83 32 112 -78 c62 -42 142 -97 180 -121 37 -24 67 -45 67 -47 0 -2 -95 -1
-212 3 l-211 6 -28 31 c-24 27 -34 31 -79 31 -46 0 -55 -4 -81 -33 -77 -86 7
-218 116 -182 43 14 75 53 75 91 l0 29 73 0 c39 0 88 -3 108 -6 36 -6 36 -7
23 -33 -8 -14 -14 -36 -14 -47 0 -16 -8 -23 -31 -28 -17 -3 -44 -19 -60 -35
-24 -24 -29 -38 -29 -76 0 -38 5 -52 29 -75 51 -52 111 -52 162 0 24 23 29 37
29 75 0 38 -5 52 -30 77 -37 36 -39 76 -6 114 l23 28 113 -12 c119 -12 149
-24 300 -120 l54 -34 -34 -19 c-29 -16 -48 -18 -112 -13 l-77 7 -36 -36 c-29
-29 -35 -42 -35 -77 0 -34 6 -48 34 -76 39 -39 89 -45 136 -17 41 24 53 54 48
112 -4 42 -2 51 11 51 9 0 31 9 50 21 29 17 35 18 45 5 268 -345 367 -465 438
-532 176 -168 413 -285 668 -328 52 -9 174 -19 270 -22 96 -3 182 -8 190 -12
22 -9 -107 -20 -330 -28 l-196 -7 -12 27 c-14 31 -67 66 -100 66 -82 0 -136
-94 -97 -169 40 -78 165 -72 199 10 l12 29 160 5 c87 2 197 9 244 14 107 13
337 14 345 2 8 -14 -128 -55 -286 -88 -121 -25 -132 -26 -141 -10 -12 23 -61
47 -95 47 -39 0 -87 -32 -102 -69 -37 -87 47 -178 136 -148 40 13 83 65 83
101 0 19 11 23 103 40 123 22 253 59 323 90 l51 24 119 -29 c327 -79 704 -145
1054 -184 249 -28 548 -54 625 -56 l50 -1 -64 -30 c-35 -16 -105 -44 -155 -61
-88 -30 -97 -32 -251 -32 -178 1 -223 9 -404 77 -241 90 -395 118 -659 118
-290 0 -484 -48 -646 -159 -53 -36 -100 -91 -89 -102 4 -4 28 -3 53 3 25 6 88
11 140 11 l95 1 200 -91 c427 -194 676 -259 894 -233 231 28 424 99 562 207
62 48 70 53 51 26 -12 -17 -60 -67 -107 -110 -79 -74 -83 -81 -72 -103 21 -43
68 -61 170 -67 120 -7 155 4 231 76 44 42 154 169 182 209 1 2 32 -6 69 -17
119 -37 221 -27 376 38 42 17 82 29 90 26 8 -3 27 -25 44 -48 104 -147 253
-295 345 -343 51 -26 162 -25 215 3 50 26 87 66 80 84 -3 8 -47 39 -97 69 -89
54 -209 154 -228 191 -8 14 -5 28 16 59 15 22 29 40 31 40 2 0 31 -19 65 -41
85 -58 268 -144 368 -173 158 -45 321 -67 530 -73 348 -9 523 40 884 246 161
93 200 103 408 105 92 1 170 5 173 8 16 16 -202 127 -335 172 -357 119 -700
88 -1214 -109 -277 -106 -327 -119 -461 -118 -112 1 -222 15 -285 35 -32 10
-24 13 155 55 105 24 303 66 440 94 322 64 587 124 888 200 206 52 259 62 359
67 247 10 437 -52 581 -191 29 -28 80 -68 112 -87 115 -68 241 -48 310 49 24
34 30 54 33 109 3 56 0 74 -20 112 -51 95 -164 135 -316 113 -42 -7 -97 -20
-122 -31 -41 -18 -57 -19 -165 -11 -66 4 -149 11 -185 15 l-65 7 35 14 c50 21
171 40 370 58 408 36 631 81 796 159 171 81 269 165 333 286 31 58 38 64 113
100 167 81 297 89 435 26 142 -64 263 -74 352 -30 135 68 158 243 46 342 -58
51 -120 68 -190 52 -67 -15 -158 -65 -219 -121 -47 -42 -67 -51 -248 -112
-109 -36 -198 -64 -198 -61 0 2 12 26 27 52 23 41 48 62 176 147 126 83 165
103 252 131 120 38 273 72 510 113 430 76 668 177 836 358 67 71 113 145 165
264 83 189 180 334 303 452 39 38 68 73 65 79 -15 24 -231 -18 -353 -67 -103
-42 -300 -143 -373 -192 -81 -53 -189 -158 -318 -308 -267 -310 -323 -360
-531 -465 l-142 -72 75 88 c41 49 133 150 204 225 71 74 214 240 318 368 352
434 397 470 881 717 292 148 405 192 529 205 126 12 179 26 224 59 86 62 107
186 46 272 -40 57 -94 83 -171 83 -54 0 -67 -5 -117 -39 -30 -21 -141 -121
-245 -222 -193 -187 -245 -226 -455 -348 l-98 -56 51 57 c223 250 266 292 541
523 273 229 318 277 394 422 78 146 125 318 126 460 0 78 -1 77 112 162 90 68
195 117 308 146 113 29 258 98 307 147 84 84 84 213 0 297 -60 60 -129 78
-212 55 -60 -16 -158 -124 -281 -309 -74 -112 -124 -176 -167 -215 -57 -50
-62 -53 -69 -34 -11 28 13 137 51 236 58 149 107 208 366 435 202 177 255 242
331 402 74 156 106 305 144 668 34 327 59 439 120 526 32 45 38 72 17 72 -32
0 -150 -83 -227 -160 -144 -143 -295 -390 -353 -575 -14 -45 -37 -164 -52
-265 -43 -299 -86 -484 -137 -585 -21 -41 -137 -215 -144 -215 -2 0 -1 6 1 13
14 40 145 514 159 572 9 39 33 158 55 265 38 194 38 196 135 410 112 245 178
432 202 570 20 115 14 354 -11 470 -27 124 -99 328 -166 470 l-64 135 1 95 c1
72 7 112 26 168 23 67 23 72 7 72 -95 0 -313 -428 -376 -737 -14 -69 -18 -134
-17 -298 0 -273 20 -390 129 -770 59 -208 60 -214 30 -410 -47 -315 -118 -675
-131 -663 -1 2 6 58 18 123 29 163 32 525 5 692 -46 291 -142 535 -323 821
-65 101 -84 49 -38 -105 38 -128 31 -222 -34 -460 -73 -266 -86 -354 -79 -548
6 -192 18 -242 116 -492 129 -329 162 -478 142 -636 -7 -51 -15 -95 -19 -98
-4 -3 -38 -16 -77 -29 -38 -12 -75 -25 -81 -27 -17 -6 -44 150 -44 257 0 52 5
139 12 192 10 86 10 106 -6 175 -23 97 -45 141 -91 181 -42 38 -71 46 -132 39
-59 -6 -121 -50 -152 -107 -55 -99 -21 -208 130 -411 73 -99 148 -238 179
-333 12 -38 12 -40 -16 -60 -157 -110 -285 -399 -443 -998 -71 -268 -128 -455
-154 -504 -12 -22 -300 -355 -303 -351 -1 1 9 47 22 102 13 55 39 189 58 298
40 234 56 271 155 374 38 39 79 91 90 115 12 24 35 68 52 98 28 49 30 61 26
118 -8 111 -80 182 -183 182 -89 0 -161 -59 -189 -155 -31 -106 -34 -188 -15
-380 13 -133 16 -202 10 -253 -15 -118 -115 -504 -149 -573 -60 -124 -922
-1112 -947 -1086 -7 7 128 199 238 339 38 48 125 137 192 197 320 287 402 430
451 794 15 111 50 266 75 331 6 16 8 31 6 33 -3 3 -34 -24 -70 -59 -66 -67
-196 -159 -346 -244 -102 -59 -229 -177 -298 -277 -115 -167 -184 -343 -288
-737 -35 -135 -83 -305 -106 -378 l-42 -134 -60 -52 c-34 -29 -99 -81 -146
-116 -47 -35 -110 -84 -140 -108 -49 -40 -145 -92 -170 -92 -11 0 32 82 124
239 43 73 77 118 115 150 67 57 201 223 232 288 34 70 37 155 7 213 -61 119
-208 155 -311 76 -99 -76 -115 -171 -66 -397 16 -71 -3 -156 -59 -274 -44 -91
-137 -244 -179 -293 l-28 -33 -225 -10 c-126 -6 -251 -17 -284 -25 -119 -29
-202 -94 -441 -341 -158 -165 -240 -232 -350 -289 -38 -20 -96 -54 -128 -76
-37 -25 -86 -46 -134 -59 -105 -26 -115 -24 -68 13 22 18 110 103 195 189 153
156 206 195 285 213 49 11 154 68 200 109 110 96 96 270 -27 340 -59 34 -100
41 -161 26 -111 -26 -197 -160 -239 -374 -24 -123 -38 -143 -255 -365 -243
-250 -240 -249 -1140 -395 -254 -41 -470 -75 -480 -74 -25 0 74 44 169 74 55
17 131 30 246 40 92 9 196 20 232 26 116 19 301 69 366 99 136 62 275 176 396
326 62 76 178 260 178 281 0 15 -16 17 -25 3 -12 -20 -107 -61 -184 -80 -43
-11 -157 -27 -252 -35 -479 -43 -794 -138 -1071 -324 -152 -102 -262 -204
-367 -338 l-32 -43 -53 40 c-68 52 -139 82 -181 78 -26 -2 -41 4 -62 24 -35
34 -85 55 -150 64 -53 7 -80 -2 -120 -39 -22 -20 -24 -20 -75 -3 -71 23 -192
31 -245 17 -23 -6 -55 -23 -72 -37 l-30 -25 -119 98 c-228 187 -433 322 -570
375 -108 42 -199 64 -437 104 -220 36 -323 60 -415 96 -88 34 -309 146 -374
189 -55 37 -76 46 -76 33 0 -15 125 -261 179 -351 119 -200 276 -328 528 -432
147 -60 259 -81 488 -92 116 -5 264 -13 331 -19 134 -11 318 -54 404 -94 l55
-26 -95 6 c-144 8 -387 32 -560 55 -288 38 -866 146 -1145 213 -98 24 -101 25
-151 80 -54 59 -107 157 -177 326 -44 105 -44 105 -26 132 29 41 25 101 -10
140 -24 27 -36 32 -74 33 -43 0 -46 2 -68 42 l-23 42 22 24 c46 48 36 132 -20
171 -32 22 -100 20 -130 -4 -82 -64 -43 -200 57 -200 30 0 38 -6 60 -45 l27
-45 -21 -26 c-27 -35 -28 -97 -1 -134 23 -32 79 -55 109 -45 24 7 32 -7 91
-156 46 -114 84 -186 130 -244 17 -21 29 -40 26 -42 -9 -9 -143 49 -193 83
-30 20 -104 94 -166 163 -139 158 -228 245 -342 336 -219 176 -388 257 -653
310 -70 15 -159 36 -199 47 -65 19 -72 23 -77 51 -15 75 4 119 67 157 29 18
31 18 56 0 67 -48 162 -12 177 67 14 75 -53 143 -128 129 -50 -9 -91 -56 -94
-107 -1 -33 -7 -44 -31 -58 -16 -10 -41 -33 -56 -50 -23 -27 -27 -42 -27 -92
0 -32 -3 -59 -6 -59 -4 0 -33 12 -64 26 -55 25 -60 30 -93 98 -40 83 -56 129
-97 286 -29 114 -29 114 -10 135 11 11 25 35 31 53 15 43 -13 101 -58 122 -24
11 -34 24 -39 47 -5 28 -2 36 25 58 57 48 50 137 -13 176 -66 40 -146 11 -167
-62 -11 -37 -11 -46 7 -77 17 -32 32 -43 94 -72 8 -4 16 -18 18 -31 2 -19 -4
-27 -28 -37 -102 -45 -61 -212 53 -212 22 0 26 -9 56 -124 18 -68 48 -161 66
-207 19 -46 33 -84 32 -86 -4 -3 -222 146 -339 232 l-95 69 -2 194 c-2 210
-15 309 -57 444 -63 200 -194 385 -475 674 -189 193 -233 258 -315 459 -17 43
-37 81 -43 83 -25 8 -51 -80 -51 -175 0 -113 16 -196 75 -399 106 -363 177
-492 374 -673 109 -101 194 -197 286 -327 63 -86 130 -202 123 -209 -1 -2 -52
38 -113 88 -295 247 -673 680 -930 1065 -115 173 -245 405 -245 437 0 39 31
140 65 210 l33 70 46 -3 c57 -5 92 15 113 66 31 75 -22 152 -106 152 -83 0
-133 -85 -96 -163 16 -35 16 -38 -4 -70 -11 -19 -32 -63 -46 -98 l-26 -64 6
180 c3 99 11 216 17 260 l13 79 35 7 c20 5 47 21 63 40 26 28 29 38 24 78 -9
83 -90 126 -165 87 -69 -35 -75 -145 -12 -189 21 -15 22 -19 12 -79 -11 -60
-29 -265 -35 -373 l-2 -50 -27 80 c-42 123 -56 190 -88 398 -32 214 -60 318
-126 481 -112 275 -277 511 -457 653 -36 28 -38 33 -27 54 33 64 85 97 169
109 58 8 85 4 76 -10 -8 -12 14 -62 37 -87 45 -49 133 -37 169 21 37 60 16
131 -47 161 -30 14 -43 15 -74 6 -20 -6 -45 -20 -55 -31 -13 -15 -31 -20 -65
-20 -61 0 -133 -22 -175 -54 l-33 -26 10 38 c16 60 65 154 113 215 l45 57 40
-21 c119 -62 224 94 123 184 -72 63 -190 0 -182 -98 3 -25 -4 -41 -30 -71 -79
-89 -130 -192 -153 -308 l-14 -66 -32 23 c-32 21 -33 24 -30 77 5 74 36 136
157 323 56 86 112 185 126 220 66 175 58 398 -25 722 -33 130 -49 269 -54 455
-2 74 -7 137 -12 140 -14 8 -81 -89 -133 -195 -59 -119 -104 -251 -121 -357
-17 -102 -8 -373 19 -578 11 -85 20 -198 21 -250 4 -199 0 -400 -8 -400 -9 0
-74 355 -107 590 -36 261 -48 429 -42 575 6 129 13 167 81 465 151 660 98
1186 -157 1564 -26 38 -47 73 -47 77 0 5 -4 9 -10 9 -5 0 -10 -10 -10 -22z
m135 -225 c180 -376 203 -810 74 -1383 -71 -315 -79 -360 -85 -480 -11 -208
28 -556 111 -999 34 -183 42 -251 29 -238 -4 3 -8 19 -10 34 -2 15 -24 120
-49 233 -112 500 -203 991 -226 1219 -14 143 -13 152 61 534 70 363 81 443 87
627 6 187 -14 340 -68 521 -16 54 -29 102 -29 106 1 15 71 -101 105 -174z
m14962 -126 c-47 -62 -92 -175 -112 -282 -24 -123 -15 -334 19 -500 14 -66 43
-208 65 -315 53 -254 55 -356 10 -558 -16 -75 -71 -335 -120 -577 -49 -242
-97 -465 -105 -495 -17 -58 -53 -135 -60 -128 -2 3 9 56 25 119 38 144 72 328
111 584 34 234 34 239 -34 473 -166 566 -169 953 -9 1342 50 122 150 304 197
357 50 57 60 41 13 -20z m-591 -1224 c79 -134 101 -186 114 -274 17 -103 8
-207 -29 -379 -46 -209 -46 -340 2 -630 48 -285 74 -488 83 -637 4 -67 10
-127 15 -134 10 -16 34 2 55 43 8 16 19 26 24 23 9 -6 97 111 165 219 74 119
120 295 170 646 37 266 87 400 222 605 118 179 203 266 336 349 42 26 48 8 7
-23 -141 -107 -249 -328 -300 -616 -12 -66 -31 -165 -42 -220 -21 -108 -114
-399 -149 -468 -54 -104 -239 -355 -390 -527 -51 -58 -103 -129 -116 -158 -22
-47 -57 -82 -70 -69 -2 3 1 41 7 85 24 165 -6 289 -186 752 -55 143 -74 250
-75 415 0 164 14 255 76 485 75 281 80 346 40 484 -23 81 -31 126 -21 126 3 0
30 -44 62 -97z m-15181 77 c27 0 136 -94 220 -188 156 -175 276 -375 338 -564
28 -84 42 -153 87 -430 58 -357 82 -421 222 -594 51 -63 58 -77 31 -67 -11 5
-14 3 -8 -6 16 -27 -42 20 -64 51 -23 31 -22 31 19 -7 48 -44 49 -46 -81 126
-238 316 -287 423 -374 814 -54 242 -92 351 -181 525 -87 169 -149 257 -212
301 -28 20 -48 39 -45 43 4 4 13 4 21 1 7 -3 20 -5 27 -5z m1205 -435 c6 -38
25 -120 40 -181 77 -302 78 -545 2 -708 -16 -35 -61 -110 -100 -168 -39 -58
-87 -134 -107 -169 -21 -35 -34 -56 -31 -46 19 58 78 317 92 402 14 86 15 140
8 385 -17 552 -7 751 44 859 l26 56 7 -180 c3 -99 12 -211 19 -250z m14600
-311 c-43 -92 -60 -121 -59 -99 1 48 21 95 69 167 25 36 46 65 48 64 1 -2 -25
-61 -58 -132z m-988 -909 c12 -27 -2 -75 -21 -75 -30 0 -65 73 -44 93 16 17
54 6 65 -18z m-13312 -166 c0 -5 -7 -9 -15 -9 -15 0 -20 12 -9 23 8 8 24 -1
24 -14z m-464 -130 c191 -134 341 -314 459 -549 113 -225 161 -380 195 -625
38 -269 85 -430 189 -650 169 -356 498 -812 856 -1184 83 -87 102 -110 61 -76
-131 111 -471 509 -606 710 -140 209 -296 476 -460 785 -51 96 -132 234 -180
306 -144 214 -177 289 -360 809 -62 176 -123 343 -136 370 -27 58 -91 138
-104 130 -5 -3 -14 3 -19 14 -26 47 -10 41 105 -40z m14852 -131 c33 -33 2
-78 -52 -78 -29 0 -33 17 -15 53 20 37 45 47 67 25z m-554 -260 c-3 -13 -31
-63 -62 -113 -70 -114 -116 -211 -292 -620 -150 -352 -206 -456 -322 -606 -64
-83 -257 -293 -264 -287 -1 2 15 55 36 118 22 63 70 235 109 381 134 509 246
790 369 929 54 62 127 103 272 155 67 24 127 48 133 54 18 18 29 12 21 -11z
m-13376 -646 c2 -7 -3 -12 -12 -12 -9 0 -16 7 -16 16 0 17 22 14 28 -4z
m12266 -178 c36 -14 6 -94 -35 -94 -42 0 -30 99 13 100 3 0 13 -3 22 -6z
m-12156 -182 c2 -7 -3 -12 -12 -12 -9 0 -16 7 -16 16 0 17 22 14 28 -4z m312
-255 c0 -20 107 -233 147 -294 21 -32 112 -134 203 -228 183 -188 236 -252
333 -401 111 -170 164 -333 173 -534 l5 -115 -24 60 c-55 138 -88 187 -326
490 -156 198 -291 399 -355 528 -26 54 -74 178 -105 275 -32 97 -61 170 -64
162 -3 -8 -6 7 -6 33 -1 30 3 46 9 42 6 -3 10 -12 10 -18z m12803 -69 c16 -24
-8 -48 -49 -48 -43 0 -51 16 -23 46 26 27 56 28 72 2z m-13698 -28 c9 -15 -3
-30 -20 -24 -7 3 -11 12 -8 20 6 16 19 18 28 4z m12416 -209 c-10 -33 -44
-105 -75 -160 -109 -193 -231 -346 -466 -586 -87 -88 -172 -182 -190 -209 -45
-67 -122 -234 -225 -486 -48 -118 -89 -217 -91 -219 -13 -15 -8 16 17 99 16
52 61 212 99 355 103 389 163 549 265 707 97 149 188 235 345 323 118 66 248
156 294 204 22 22 41 39 43 37 2 -2 -5 -31 -16 -65z m-12187 -416 c94 -25 181
-62 346 -149 183 -96 238 -145 395 -351 278 -366 391 -477 554 -546 69 -30
119 -36 152 -19 23 13 26 -2 4 -24 -38 -37 -187 -40 -280 -6 -33 13 -91 43
-130 68 -101 66 -311 280 -468 477 -177 222 -325 366 -453 441 -25 15 -103 49
-173 75 l-126 48 60 1 c34 0 87 -7 119 -15z m12996 -195 c-8 -5 -26 -10 -39
-10 -37 0 -135 -58 -219 -129 -93 -79 -171 -158 -400 -405 -200 -215 -247
-255 -352 -303 -299 -138 -634 -273 -673 -273 -7 0 37 22 96 50 235 107 331
180 519 395 331 379 365 408 613 530 205 100 340 146 455 154 13 1 13 0 0 -9z
m-11179 -365 c-1 -15 -24 -12 -29 3 -3 9 2 13 12 10 10 -1 17 -7 17 -13z
m9033 -198 c8 -13 7 -24 -4 -45 -28 -49 -70 -38 -70 19 0 47 49 66 74 26z
m-9014 -92 c0 -8 -7 -15 -15 -15 -8 0 -15 7 -15 15 0 8 7 15 15 15 8 0 15 -7
15 -15z m615 -335 c3 -6 -1 -13 -10 -16 -19 -8 -30 0 -20 15 8 14 22 14 30 1z
m-170 -345 c44 -13 130 -33 190 -45 152 -30 253 -64 368 -121 197 -98 398
-261 591 -481 167 -189 228 -236 365 -281 105 -35 371 -99 548 -133 51 -10 91
-20 89 -22 -13 -12 -478 78 -638 124 -268 77 -717 278 -919 411 -94 63 -190
140 -417 336 -37 32 -145 110 -239 173 -95 64 -173 117 -173 119 0 1 35 -11
78 -27 42 -17 113 -41 157 -53z m9173 -47 c4 -32 -21 -49 -61 -41 -39 8 -46
32 -17 55 34 27 74 20 78 -14z m-8000 -16 c2 -7 -3 -12 -12 -12 -9 0 -16 7
-16 16 0 17 22 14 28 -4z m7182 -113 c-176 -166 -320 -268 -459 -324 -34 -14
-173 -53 -309 -86 -245 -60 -291 -76 -619 -213 -73 -30 -133 -53 -133 -51 0 2
39 29 88 60 67 43 132 102 282 254 211 214 257 255 337 295 75 37 120 44 369
56 247 11 360 27 449 64 33 14 65 25 70 25 6 0 -28 -36 -75 -80z m-1322 9 c31
-31 1 -77 -50 -78 -31 0 -36 16 -17 53 20 37 45 47 67 25z m-7320 -40 c-6 -18
-28 -21 -28 -4 0 9 7 16 16 16 9 0 14 -5 12 -12z m2147 -203 c189 -89 257
-109 570 -160 120 -20 258 -48 305 -61 197 -56 414 -190 730 -453 168 -139
169 -141 60 -76 -142 83 -332 173 -445 210 -112 36 -181 53 -507 125 -332 72
-438 112 -614 228 -145 96 -364 290 -364 321 0 6 35 -11 78 -36 42 -25 127
-70 187 -98z m-557 43 c-6 -18 -28 -21 -28 -4 0 9 7 16 16 16 9 0 14 -5 12
-12z m5094 -150 c-28 -50 -37 -57 -149 -113 -147 -75 -352 -156 -490 -195 -57
-16 -215 -52 -351 -80 -409 -85 -494 -123 -726 -326 -73 -63 -78 -66 -101 -54
-14 7 -25 19 -25 26 0 31 131 178 240 269 201 168 424 279 707 350 169 42 278
60 494 80 215 19 364 51 404 87 25 22 24 3 -3 -44z m1112 -490 c13 -21 -2 -51
-26 -56 -24 -5 -73 42 -65 62 9 23 75 18 91 -6z m-6636 -36 c2 -7 -3 -12 -12
-12 -9 0 -16 7 -16 16 0 17 22 14 28 -4z m320 -180 c2 -7 -3 -12 -12 -12 -9 0
-16 7 -16 16 0 17 22 14 28 -4z m5272 8 c181 -19 392 -85 540 -168 85 -48 58
-53 -70 -14 -176 55 -252 67 -420 66 -185 0 -234 -11 -495 -111 -302 -116
-362 -129 -648 -139 -185 -7 -302 3 -430 35 -105 27 -231 81 -219 93 7 7 29 3
65 -10 122 -46 369 -58 498 -24 42 12 153 50 245 85 214 82 328 118 478 152
190 42 302 51 456 35z m-4221 -85 c145 -7 278 -37 455 -100 235 -85 259 -90
436 -90 92 0 171 5 194 12 22 7 41 11 43 9 9 -9 -189 -97 -247 -110 -134 -32
-260 -17 -721 83 -358 78 -410 85 -588 78 -155 -6 -250 -25 -357 -72 -83 -37
-97 -31 -45 16 61 55 187 115 306 145 97 24 295 44 380 38 22 -2 87 -6 144 -9z"/>
<path d="M11580 13320 c-9 -6 -10 -10 -3 -10 6 0 15 5 18 10 8 12 4 12 -15 0z"/>
<path d="M11396 13235 c-3 -8 -2 -15 3 -15 5 0 12 -15 15 -33 7 -38 32 -77 48
-77 7 0 4 6 -5 13 -20 15 -37 59 -37 98 0 31 -14 39 -24 14z"/>
<path d="M11369 13193 c-13 -16 -12 -17 4 -4 9 7 17 15 17 17 0 8 -8 3 -21
-13z"/>
<path d="M12081 13058 c-18 -61 -58 -127 -85 -140 -18 -7 -31 -6 -55 7 -42 21
-110 92 -117 121 -9 37 -19 29 -33 -26 -9 -37 -23 -58 -49 -80 -20 -17 -41
-30 -47 -30 -18 0 -49 62 -55 109 l-5 45 -37 -60 c-62 -100 -111 -132 -146
-94 -23 25 -33 64 -25 103 3 15 2 27 -1 27 -4 0 -28 -20 -55 -45 -45 -42 -145
-96 -203 -111 -24 -5 -29 -2 -38 22 -9 23 -7 36 14 75 l24 47 -71 -48 c-89
-60 -143 -88 -185 -96 -31 -6 -32 -5 -32 25 0 18 4 40 9 50 8 13 -14 8 -97
-25 l-107 -43 -5 24 c-5 22 -9 19 -75 -41 l-70 -63 1258 -1 c691 0 1257 2
1257 3 0 2 -33 32 -74 67 l-74 63 -74 -2 c-83 -1 -177 27 -261 79 -26 16 -49
30 -50 30 -1 0 -2 -29 -3 -65 0 -36 -5 -70 -12 -77 -16 -16 -88 45 -132 114
l-38 57 -6 -58 c-5 -47 -14 -66 -42 -100 -20 -22 -40 -41 -44 -41 -5 0 -25 14
-45 32 -38 33 -71 88 -90 151 l-11 39 -13 -44z"/>
<path d="M10365 12605 c-7 -154 8 -638 22 -706 5 -29 7 -29 74 -29 l69 0 0
-394 0 -394 26 -68 c29 -78 119 -259 164 -331 l30 -48 0 618 0 617 115 0 115
0 0 -779 0 -779 110 -113 109 -114 1 893 0 892 115 0 115 0 0 -992 0 -993 73
-51 c39 -28 89 -61 110 -73 l37 -23 0 1066 0 1066 110 0 110 0 0 -1066 0
-1066 38 23 c20 12 70 45 109 73 l73 51 0 993 0 992 115 0 115 0 0 -892 1
-893 109 114 110 113 0 779 0 779 115 0 115 0 0 -617 0 -618 36 60 c55 90 128
242 158 323 l26 73 0 390 0 389 64 0 64 0 7 168 c8 167 1 581 -11 680 l-7 52
-1367 0 -1368 0 -7 -165z"/>
<path d="M10614 10683 c-15 -27 -34 -60 -43 -75 -9 -14 -72 -65 -141 -113
-288 -201 -514 -405 -588 -530 -44 -75 -93 -211 -113 -312 -10 -55 -9 -67 5
-98 21 -43 48 -55 122 -55 30 0 54 -4 54 -9 0 -5 -7 -28 -15 -51 -36 -103 1
-227 79 -264 20 -10 36 -24 36 -34 0 -10 8 -2 17 17 9 18 31 42 47 53 17 11
22 17 11 13 -65 -24 -120 -11 -161 38 -24 29 -26 37 -22 102 4 58 12 85 46
150 39 74 47 84 114 125 121 75 272 186 336 244 33 31 62 56 66 56 3 0 6 -11
6 -25 0 -19 -26 -51 -98 -123 l-99 -97 93 88 c51 48 98 87 105 87 7 0 9 -10 7
-25 -3 -13 -1 -22 4 -19 20 13 18 -33 -8 -131 -20 -79 -40 -127 -78 -190 -61
-102 -138 -191 -200 -233 l-46 -30 84 5 c92 6 124 -5 246 -82 30 -19 63 -35
75 -35 12 1 5 6 -19 15 -21 7 -62 29 -90 49 -59 41 -116 66 -148 66 -20 0 -17
5 24 48 25 26 66 80 91 121 44 71 46 73 52 45 20 -95 14 -89 87 -88 l67 1 6
-76 c3 -42 12 -96 20 -121 11 -34 11 -46 2 -52 -19 -12 21 -10 43 2 11 6 43
15 72 20 68 13 95 32 107 75 11 39 134 182 169 196 15 6 30 5 43 -1 17 -10 19
-23 20 -118 0 -69 3 -100 9 -87 5 11 9 14 9 6 1 -8 10 -44 21 -82 18 -60 27
-74 76 -115 l56 -48 46 24 c25 14 67 45 93 71 l48 47 24 -37 c13 -20 34 -55
46 -79 12 -23 26 -42 31 -42 24 0 64 23 106 62 75 69 124 186 153 362 l17 100
43 -109 c65 -163 109 -296 141 -430 47 -195 76 -245 145 -245 17 0 48 9 70 20
47 24 46 24 39 3 -4 -14 -2 -13 7 2 7 11 28 40 48 65 l36 44 -35 -26 c-94 -70
-179 -87 -217 -45 -33 35 -42 59 -73 190 -31 128 -114 380 -182 552 -22 55
-41 102 -43 103 -2 2 -3 -41 -4 -96 0 -224 -73 -395 -198 -469 -24 -14 -48
-22 -52 -17 -18 21 -108 140 -114 150 -4 7 13 57 38 113 47 106 125 331 125
360 0 9 -21 28 -48 43 -136 74 -522 416 -522 461 0 10 -7 20 -15 23 -29 11
-263 343 -344 487 -18 31 -35 57 -37 57 -2 0 -15 -21 -30 -47z m-98 -263 l-33
-133 -56 -29 c-32 -15 -57 -31 -57 -33 0 -3 22 6 50 20 55 28 60 29 60 15 0
-5 -27 -23 -60 -40 -33 -17 -60 -33 -60 -35 0 -3 22 6 50 20 27 14 53 25 58
25 4 0 5 -26 1 -57 -4 -32 -8 -95 -8 -140 l-1 -83 -97 -81 c-92 -76 -368 -266
-441 -303 -70 -36 -158 -29 -185 16 -17 25 36 216 90 328 41 84 58 107 157
205 61 62 161 151 221 199 118 94 336 248 342 243 1 -2 -12 -64 -31 -137z
m-486 -1240 c-6 -11 -13 -20 -16 -20 -2 0 0 9 6 20 6 11 13 20 16 20 2 0 0 -9
-6 -20z"/>
<path d="M10334 10204 c-18 -14 -18 -15 4 -4 12 6 22 13 22 15 0 8 -5 6 -26
-11z"/>
<path d="M10324 10164 c-18 -14 -18 -15 4 -4 12 6 22 13 22 15 0 8 -5 6 -26
-11z"/>
<path d="M10259 10153 c-13 -16 -12 -17 4 -4 9 7 17 15 17 17 0 8 -8 3 -21
-13z"/>
<path d="M10145 10059 c-75 -72 -205 -242 -193 -254 2 -2 23 22 47 54 41 57
156 173 236 240 36 29 36 30 5 9 -19 -12 -68 -54 -107 -92 -40 -38 -73 -64
-73 -58 0 5 41 49 91 96 51 47 89 86 86 86 -3 0 -44 -37 -92 -81z"/>
<path d="M10439 9803 c-13 -16 -12 -17 4 -4 9 7 17 15 17 17 0 8 -8 3 -21 -13z"/>
<path d="M10340 9715 c-41 -41 -72 -75 -69 -75 2 0 38 34 79 75 41 41 72 75
69 75 -2 0 -38 -34 -79 -75z"/>
<path d="M10249 9663 c-29 -35 -41 -53 -36 -53 2 0 17 16 31 35 28 36 31 49 5
18z"/>
<path d="M10239 9603 l-24 -28 28 24 c15 14 27 26 27 28 0 8 -8 1 -31 -24z"/>
<path d="M10199 9553 c-13 -16 -12 -17 4 -4 16 13 21 21 13 21 -2 0 -10 -8
-17 -17z"/>
<path d="M10125 9470 c-19 -38 -33 -70 -31 -70 2 0 26 30 51 67 26 37 39 61
29 53 -16 -14 -17 -13 -11 3 15 40 -5 12 -38 -53z"/>
<path d="M11631 9424 c0 -11 3 -14 6 -6 3 7 2 16 -1 19 -3 4 -6 -2 -5 -13z"/>
<path d="M14875 9129 c-478 -159 -874 -289 -878 -289 -5 0 -5 10 -1 23 19 59
-9 163 -57 215 -41 44 -100 72 -150 72 -71 0 -120 -75 -106 -162 3 -18 11 -64
18 -101 10 -57 10 -70 -1 -77 -10 -6 -7 -10 13 -15 17 -5 27 -14 27 -25 0 -15
-45 -33 -242 -99 -133 -44 -243 -80 -244 -78 -1 1 2 40 6 87 6 70 7 75 9 31 1
-53 1 -53 24 -39 31 21 32 48 3 88 -14 19 -36 58 -50 86 -13 28 -34 59 -47 68
-32 22 -104 20 -155 -5 -66 -32 -79 -76 -78 -265 l2 -150 -225 -75 c-153 -50
-216 -75 -197 -77 16 -1 116 27 223 63 107 35 196 64 197 62 5 -4 -17 -183
-27 -219 l-10 -38 -265 0 -265 0 6 38 c24 137 90 266 131 256 49 -12 149 66
180 141 20 50 10 41 -19 -16 -20 -39 -26 -44 -57 -44 -35 0 -35 1 -38 47 -2
37 -9 52 -29 68 -56 43 -147 48 -196 10 -13 -11 -38 -46 -56 -80 -18 -34 -36
-59 -39 -56 -3 3 -9 36 -12 74 -7 66 -7 66 -9 15 0 -28 4 -64 9 -78 7 -20 6
-41 -6 -83 -18 -62 -20 -187 -4 -242 5 -19 10 -38 10 -42 0 -5 -151 -8 -335
-8 -376 0 -342 -8 -326 77 5 24 5 82 0 131 -8 85 -7 90 22 146 16 34 29 74 29
95 -1 81 -68 165 -141 176 l-34 5 35 -11 c77 -24 129 -92 130 -169 0 -37 -37
-122 -55 -127 -6 -2 -21 28 -33 66 -31 95 -47 112 -108 118 -66 7 -108 -14
-124 -62 -6 -19 -8 -40 -4 -46 4 -7 6 -47 5 -90 l-1 -79 29 0 c28 0 49 -15 38
-26 -6 -6 -568 164 -580 176 -13 12 80 90 110 91 22 1 24 3 7 6 -21 4 -21 5
-7 43 21 52 10 105 -29 142 -25 23 -39 28 -80 28 -60 0 -96 -18 -137 -67 -26
-32 -33 -35 -42 -23 -5 8 -8 40 -6 70 l3 55 -92 -1 -92 -1 4 41 4 41 -14 -43
c-16 -48 -34 -74 -46 -67 -5 3 -20 1 -34 -5 -21 -8 -27 -6 -37 11 -10 19 -9
33 7 114 17 90 -95 157 -185 111 -36 -19 -79 -76 -101 -134 l-18 -46 -7 33
c-4 18 -9 30 -12 27 -3 -3 1 -25 10 -48 22 -62 31 -149 15 -143 -84 29 -639
195 -652 195 -51 0 19 -26 328 -120 l344 -105 21 -50 c25 -60 117 -205 130
-205 5 0 7 43 4 104 l-6 105 159 -50 c87 -27 178 -54 200 -60 l41 -11 5 -67
c7 -94 53 -192 124 -262 29 -29 55 -51 58 -48 2 2 -2 29 -11 59 -19 73 -21
197 -2 232 l14 26 311 -95 310 -95 12 -44 c7 -25 12 -62 12 -84 l0 -40 -1379
0 c-909 0 -1382 -3 -1386 -10 -4 -7 459 -10 1380 -10 l1387 0 -6 -47 c-3 -27
-8 -74 -12 -105 l-6 -57 -964 -321 c-819 -273 -1007 -340 -957 -340 9 0 1809
596 2233 739 172 58 282 100 265 100 -17 1 -138 -35 -270 -79 -132 -44 -241
-80 -242 -80 -2 0 15 26 37 59 22 32 47 75 55 95 l15 36 344 0 345 0 21 -30
c25 -35 16 -38 -52 -14 -26 8 -61 14 -79 12 -26 -2 -14 -9 67 -32 55 -16 110
-39 124 -52 18 -16 29 -19 40 -12 11 6 478 -133 1648 -492 899 -276 1636 -499
1639 -496 4 3 3 9 0 12 -4 4 -698 219 -1544 479 -846 259 -1584 486 -1640 504
l-103 32 0 44 0 45 260 0 260 0 -6 -25 c-6 -24 -5 -25 20 -15 14 5 39 16 56
25 25 13 168 15 1170 15 758 0 1139 3 1135 10 -4 7 -392 10 -1131 10 l-1125 0
55 56 c62 63 113 152 136 238 l17 60 246 82 247 82 0 -53 c0 -59 -20 -166 -44
-232 -20 -56 -6 -63 44 -23 98 77 185 200 225 317 l23 68 881 295 c484 162
881 299 882 303 0 5 -1 10 -3 12 -1 1 -394 -127 -873 -286z m-4645 -18 c0 -5
-13 -19 -30 -31 -54 -38 -82 -102 -90 -199 -6 -77 -7 -83 -18 -59 -19 46 -25
121 -12 168 15 56 85 130 124 130 14 0 26 -4 26 -9z m3610 -61 c34 -47 45
-120 31 -197 -7 -37 -18 -81 -24 -96 -10 -25 -12 -11 -12 90 0 108 -2 123 -28
174 -15 31 -27 58 -27 62 0 15 43 -9 60 -33z m-3530 -93 c0 -2 -10 -12 -22
-23 l-23 -19 19 23 c18 21 26 27 26 19z m267 -93 c20 -8 39 -26 49 -47 15 -32
15 -39 1 -97 -9 -34 -18 -64 -19 -66 -4 -3 -388 113 -395 120 -2 2 0 19 5 37
8 33 10 34 73 40 35 4 75 11 89 16 14 6 31 8 38 6 6 -3 12 -1 12 4 0 13 108 4
147 -13z m2533 -19 c24 -28 -21 -291 -66 -388 l-15 -32 5 35 c29 185 36 243
36 295 0 96 13 123 40 90z m-2290 -2 c0 -5 -15 -18 -34 -30 -49 -31 -85 -112
-93 -204 -6 -74 -6 -74 -19 -39 -32 89 -7 200 55 253 30 25 91 38 91 20z
m1606 -174 c3 -6 -5 -23 -19 -37 -39 -40 -68 -116 -88 -227 l-19 -100 3 110
c3 93 7 119 29 167 36 79 76 116 94 87z m-984 -16 c49 -56 74 -170 62 -283
l-7 -75 -13 105 c-14 121 -34 184 -70 222 -26 26 -25 48 0 48 7 0 20 -8 28
-17z"/>
<path d="M13753 9323 c15 -2 37 -2 50 0 12 2 0 4 -28 4 -27 0 -38 -2 -22 -4z"/>
<path d="M9437 9221 c-147 -133 -141 -126 -130 -146 9 -15 13 -11 30 21 14 28
30 42 54 50 25 8 51 34 97 93 35 44 62 81 60 80 -2 0 -51 -44 -111 -98z"/>
<path d="M13688 9313 c7 -3 16 -2 19 1 4 3 -2 6 -13 5 -11 0 -14 -3 -6 -6z"/>
<path d="M13838 9313 c7 -3 16 -2 19 1 4 3 -2 6 -13 5 -11 0 -14 -3 -6 -6z"/>
<path d="M10118 9233 c7 -3 16 -2 19 1 4 3 -2 6 -13 5 -11 0 -14 -3 -6 -6z"/>
<path d="M13180 9200 c8 -5 22 -9 30 -9 10 0 8 3 -5 9 -27 12 -43 12 -25 0z"/>
<path d="M11112 9170 c0 -14 2 -19 5 -12 2 6 2 18 0 25 -3 6 -5 1 -5 -13z"/>
<path d="M13238 9183 c7 -3 16 -2 19 1 4 3 -2 6 -13 5 -11 0 -14 -3 -6 -6z"/>
<path d="M13488 9183 c7 -3 16 -2 19 1 4 3 -2 6 -13 5 -11 0 -14 -3 -6 -6z"/>
<path d="M13283 9173 c9 -2 25 -2 35 0 9 3 1 5 -18 5 -19 0 -27 -2 -17 -5z"/>
<path d="M13403 9173 c15 -2 37 -2 50 0 12 2 0 4 -28 4 -27 0 -38 -2 -22 -4z"/>
<path d="M13036 9146 c3 -9 10 -16 15 -16 5 0 9 -9 9 -20 0 -18 6 -20 58 -19
l57 0 -48 19 c-26 11 -59 27 -72 36 -23 15 -25 15 -19 0z"/>
<path d="M11120 9132 c0 -46 83 -142 183 -211 53 -36 136 -75 144 -68 2 3 -11
10 -31 17 -94 31 -237 149 -272 225 -13 28 -24 44 -24 37z"/>
<path d="M10593 9123 c9 -2 23 -2 30 0 6 3 -1 5 -18 5 -16 0 -22 -2 -12 -5z"/>
<path d="M10003 9075 c0 -27 2 -38 4 -22 2 15 2 37 0 50 -2 12 -4 0 -4 -28z"/>
<path d="M13544 9038 c2 -78 6 -92 33 -137 21 -33 27 -51 20 -54 -7 -3 -2 -4
10 -4 19 1 20 3 9 17 -34 38 -59 109 -67 185 l-8 80 3 -87z"/>
<path d="M11020 9017 c0 -20 -30 -23 -50 -4 -8 6 -4 0 9 -15 13 -15 28 -26 34
-25 6 1 12 -4 13 -10 1 -7 2 -18 3 -24 0 -5 4 -8 9 -6 4 3 8 -8 9 -24 1 -16 7
-37 12 -47 17 -28 14 36 -5 99 -17 57 -34 86 -34 56z"/>
<path d="M9373 8899 c22 -60 42 -107 44 -105 3 2 -3 42 -12 89 -14 71 -22 88
-45 105 l-27 20 40 -109z"/>
<path d="M14032 8990 c0 -14 2 -19 5 -12 2 6 2 18 0 25 -3 6 -5 1 -5 -13z"/>
<path d="M12201 8984 c0 -11 3 -14 6 -6 3 7 2 16 -1 19 -3 4 -6 -2 -5 -13z"/>
<path d="M14016 8945 c-9 -26 -7 -32 5 -12 6 10 9 21 6 23 -2 3 -7 -2 -11 -11z"/>
<path d="M12397 8908 c-9 -23 -15 -43 -13 -45 1 -2 14 6 29 17 14 11 38 20 54
21 l28 0 -25 10 c-13 6 -32 17 -41 25 -14 13 -18 10 -32 -28z"/>
<path d="M13360 8944 c0 -3 7 -19 16 -36 8 -16 16 -56 17 -88 1 -32 6 -56 10
-53 5 3 6 11 3 18 -7 20 38 56 93 75 63 21 55 37 -25 51 -32 6 -71 17 -86 24
-16 8 -28 12 -28 9z"/>
<path d="M12211 8924 c0 -11 3 -14 6 -6 3 7 2 16 -1 19 -3 4 -6 -2 -5 -13z"/>
<path d="M12649 8825 c25 -28 46 -62 53 -91 11 -40 14 -43 19 -23 7 24 7 24 8
2 1 -21 3 -22 29 -11 63 27 61 43 -11 79 -44 23 -54 20 -38 -9 23 -42 10 -35
-15 8 -28 50 -63 90 -77 90 -5 0 9 -20 32 -45z"/>
<path d="M11061 8789 c-6 -18 -23 -46 -38 -61 l-27 -28 30 0 c23 0 26 -2 14
-11 -12 -8 -9 -9 13 -5 16 4 27 2 27 -4 0 -6 4 -9 9 -5 10 6 3 111 -9 134 -5
9 -11 3 -19 -20z"/>
<path d="M11220 8753 c-17 -21 -36 -57 -42 -80 -6 -24 -13 -43 -16 -43 -3 0
-15 8 -26 17 -12 10 -8 3 8 -15 17 -17 33 -32 37 -32 3 0 9 25 11 55 4 43 12
64 37 95 17 22 30 40 27 40 -2 0 -19 -17 -36 -37z"/>
<path d="M12828 8713 c7 -3 16 -2 19 1 4 3 -2 6 -13 5 -11 0 -14 -3 -6 -6z"/>
<path d="M11230 8505 c19 -19 36 -35 39 -35 3 0 -10 16 -29 35 -19 19 -36 35
-39 35 -3 0 10 -16 29 -35z"/>
<path d="M8677 8389 c-74 -123 -77 -130 -63 -151 16 -22 16 -22 16 15 0 36 26
76 56 88 11 4 77 169 71 175 -1 2 -38 -55 -80 -127z"/>
<path d="M8677 8157 c13 -22 126 -167 130 -167 2 0 -16 37 -41 82 -33 61 -52
84 -71 89 -18 5 -23 4 -18 -4z"/>
<path d="M9451 7664 c0 -11 3 -14 6 -6 3 7 2 16 -1 19 -3 4 -6 -2 -5 -13z"/>
<path d="M9416 7505 c-16 -71 -31 -135 -33 -141 -2 -7 10 -22 28 -35 l33 -23
-17 24 c-24 35 -22 95 3 113 19 13 21 23 18 103 l-3 89 -29 -130z"/>
<path d="M9495 7291 c-16 -6 -4 -18 75 -71 l95 -62 -70 71 c-38 39 -72 71 -75
70 -3 0 -14 -4 -25 -8z"/>
<path d="M3424 18608 c-59 -41 -129 -137 -120 -165 4 -12 55 -58 114 -104 59
-45 144 -111 189 -146 l82 -64 47 73 c116 178 112 256 -18 356 -118 90 -210
106 -294 50z"/>
<path d="M2776 16783 c165 -213 177 -227 186 -212 53 88 148 262 145 266 -5 4
-322 32 -370 33 -28 0 -28 -1 39 -87z"/>
<path d="M2035 16198 c-55 -30 -125 -139 -125 -195 0 -27 -4 -25 221 -117 101
-41 200 -82 220 -90 l36 -15 26 82 c17 51 27 104 27 140 0 53 -3 62 -32 89
-89 83 -304 145 -373 106z"/>
<path d="M1570 13284 c-245 -33 -381 -143 -410 -331 -20 -126 -73 -109 531
-170 391 -39 532 -50 555 -42 39 12 54 44 61 129 7 86 -11 169 -48 220 -56 78
-191 144 -357 176 -81 15 -272 26 -332 18z"/>
<path d="M21536 9109 c-43 -5 -84 -10 -89 -12 -6 -2 29 -36 79 -75 49 -40 93
-71 98 -69 5 2 22 40 37 85 l28 82 -37 -1 c-20 -1 -73 -5 -116 -10z"/>
<path d="M20055 6636 c-37 -16 -85 -70 -85 -96 0 -10 7 -21 16 -24 9 -4 65
-38 124 -76 58 -39 112 -70 118 -70 20 0 62 96 62 143 0 54 -24 87 -83 116
-49 24 -108 26 -152 7z"/>
<path d="M5493 4678 c-48 -51 -395 -449 -429 -494 -13 -17 -27 -44 -30 -61 -5
-25 0 -34 30 -61 83 -73 247 -83 370 -22 189 94 324 328 286 498 -11 48 -21
65 -75 119 -77 77 -95 79 -152 21z"/>
<path d="M17490 3778 c0 -23 42 -213 49 -220 4 -4 42 16 84 46 l77 54 -92 59
c-122 78 -118 76 -118 61z"/>
<path d="M14492 2681 c-66 -23 -104 -58 -134 -125 -20 -44 -23 -67 -22 -166 0
-99 4 -126 28 -195 75 -217 239 -343 398 -305 71 18 140 85 162 159 20 69 21
209 1 285 -23 88 -83 193 -145 256 -93 95 -190 126 -288 91z"/>
<path d="M9078 2390 l-77 -99 36 -10 c68 -19 143 -34 147 -30 5 5 -19 228 -25
234 -3 2 -39 -41 -81 -95z"/>
</g>
</svg>
